<svg xmlns="http://www.w3.org/2000/svg" viewBox="0 0 1080 1920"><defs><style>.cls-1,.cls-11,.cls-12,.cls-13,.cls-14,.cls-15,.cls-16,.cls-17,.cls-18,.cls-19,.cls-21,.cls-22,.cls-23,.cls-24,.cls-25,.cls-26,.cls-27,.cls-28,.cls-29,.cls-3,.cls-30,.cls-31,.cls-32,.cls-33,.cls-34,.cls-35,.cls-36,.cls-37,.cls-38,.cls-39,.cls-40,.cls-41,.cls-5,.cls-6,.cls-8,.cls-9{fill:none;stroke-miterlimit:10;}.cls-1,.cls-16,.cls-24,.cls-30,.cls-35{stroke:#7852a1;}.cls-1,.cls-25{stroke-width:19.32px;}.cls-2{fill:#7852a1;}.cls-12,.cls-14,.cls-15,.cls-17,.cls-18,.cls-21,.cls-22,.cls-23,.cls-25,.cls-26,.cls-27,.cls-29,.cls-3,.cls-31,.cls-33,.cls-34,.cls-36,.cls-38,.cls-41,.cls-5,.cls-8{stroke:#522e89;}.cls-3{stroke-width:19.56px;}.cls-4{fill:#522e89;}.cls-5{stroke-width:11.28px;}.cls-11,.cls-28,.cls-39,.cls-40,.cls-6{stroke:#ad97c8;}.cls-30,.cls-32,.cls-33,.cls-6{stroke-width:8.48px;}.cls-7{fill:#ad97c8;}.cls-8{stroke-width:4.3px;}.cls-13,.cls-32,.cls-37,.cls-9{stroke:#7952a2;}.cls-9{stroke-width:7.95px;}.cls-10{fill:#7952a2;}.cls-11{stroke-width:25.31px;}.cls-12{stroke-width:12.54px;}.cls-13{stroke-width:2.85px;}.cls-14{stroke-width:16.86px;}.cls-15{stroke-width:4.05px;}.cls-16{stroke-width:7.84px;}.cls-17{stroke-width:4.27px;}.cls-18{stroke-width:8.12px;}.cls-19{stroke:#ae97c8;}.cls-19,.cls-24{stroke-width:33.66px;}.cls-20{fill:#ae97c8;}.cls-21{stroke-width:8.11px;}.cls-22{stroke-width:26.85px;}.cls-23{stroke-width:2.5px;}.cls-26{stroke-width:22.8px;}.cls-27,.cls-37{stroke-width:4.94px;}.cls-28{stroke-width:6.04px;}.cls-29{stroke-width:5.48px;}.cls-31{stroke-width:3.49px;}.cls-34{stroke-width:6.17px;}.cls-35{stroke-width:13.68px;}.cls-36{stroke-width:9.31px;}.cls-38,.cls-40{stroke-width:6.68px;}.cls-39{stroke-width:6.9px;}.cls-41{stroke-width:4.09px;}</style></defs><title>j slovo</title><g id="Layer_40" data-name="Layer 40"><circle class="cls-1" cx="747.96" cy="681.84" r="76.05"/><path class="cls-2" d="M754.3,584.49H741.81q-.93,8.29-1.85,16.59l16-.09Q755.14,592.74,754.3,584.49Z"/><path class="cls-2" d="M787.22,592.53l-11.74-4.27q-3.72,7.47-7.42,15l15.07,5.38Q785.17,600.56,787.22,592.53Z"/><path class="cls-2" d="M815.39,611.34l-9.57-8-12.08,11.52,12.32,10.22Z"/><path class="cls-2" d="M835.44,638.66l-6.25-10.82-15.3,6.69L822,648.34Z"/><path class="cls-2" d="M844.93,671.18l-2.17-12.3-16.66,1L829,675.68Z"/><path class="cls-2" d="M842.72,705l2.17-12.31-16-4.7-2.68,15.78Z"/><path class="cls-2" d="M829.09,736l6.25-10.82-13.45-9.9L814,729.19Z"/><path class="cls-2" d="M805.67,760.48l9.57-8L806,738.55l-12.2,10.36Z"/><path class="cls-2" d="M775.29,775.48,787,771.21,783.1,755l-15,5.57Z"/><path class="cls-2" d="M741.62,779.18h12.49q.93-8.29,1.85-16.59l-16,.1Q740.79,770.93,741.62,779.18Z"/><path class="cls-2" d="M708.7,771.14l11.74,4.27q3.72-7.47,7.42-14.95l-15.07-5.39Q710.75,763.11,708.7,771.14Z"/><path class="cls-2" d="M680.53,752.33l9.57,8,12.08-11.52-12.32-10.21Z"/><path class="cls-2" d="M660.48,725l6.25,10.82,15.3-6.69-8.09-13.81Z"/><path class="cls-2" d="M651,692.49l2.17,12.31,16.66-1.06L667,688Z"/><path class="cls-2" d="M653.2,658.68,651,671l16,4.71,2.68-15.79Z"/><path class="cls-2" d="M666.83,627.67l-6.25,10.82,13.44,9.9,7.92-13.91Z"/><path class="cls-2" d="M690.25,603.19l-9.57,8,9.24,13.9,12.2-10.36Z"/><path class="cls-2" d="M720.63,588.19l-11.74,4.27,3.93,16.23,15-5.57Z"/><path class="cls-2" d="M754.3,584.49H741.81q-.93,8.29-1.85,16.59l16-.09Q755.14,592.74,754.3,584.49Z"/><circle class="cls-2" cx="747.96" cy="681.84" r="18.19"/></g><g id="Layer_1" data-name="Layer 1"><circle class="cls-3" cx="294.76" cy="504.41" r="35.85"/><path class="cls-4" d="M298,454.27h-6.44l-.95,8.55,8.24-.05C298.6,459.94,298.31,457.11,298,454.27Z"/><path class="cls-4" d="M315,458.43l-6-2.2-3.82,7.7,7.76,2.77Z"/><path class="cls-4" d="M329.61,468.15,324.69,464,318.46,470l6.35,5.26Z"/><path class="cls-4" d="M340,482.27l-3.22-5.57-7.87,3.44,4.16,7.12Z"/><path class="cls-4" d="M344.89,499.08l-1.11-6.33-8.59.54,1.48,8.11Z"/><path class="cls-4" d="M343.76,516.56l1.12-6.34-8.25-2.42-1.39,8.13Z"/><path class="cls-4" d="M336.71,532.6l3.22-5.57-6.92-5.1-4.08,7.16Z"/><path class="cls-4" d="M324.61,545.26l4.93-4.14L324.78,534l-6.29,5.34Z"/><path class="cls-4" d="M308.9,553l6.05-2.2-2-8.36-7.73,2.87Q307.05,549.17,308.9,553Z"/><path class="cls-4" d="M291.49,554.93h6.44l.95-8.54-8.24.05C290.92,549.27,291.21,552.1,291.49,554.93Z"/><path class="cls-4" d="M274.48,550.78l6,2.2,3.82-7.7-7.76-2.77Z"/><path class="cls-4" d="M259.91,541.06l4.92,4.13,6.23-5.93L264.71,534Z"/><path class="cls-4" d="M249.54,526.94l3.22,5.57,7.87-3.44L256.47,522Z"/><path class="cls-4" d="M244.63,510.13l1.11,6.33,8.59-.54-1.48-8.11Z"/><path class="cls-4" d="M245.76,492.65,244.64,499l8.25,2.43,1.39-8.13Z"/><path class="cls-4" d="M252.81,476.61l-3.22,5.57,6.92,5.1,4.08-7.16Z"/><path class="cls-4" d="M264.91,464,260,468.08l4.76,7.16,6.29-5.33Z"/><path class="cls-4" d="M280.62,456.19l-6.05,2.2,2,8.36,7.73-2.87Q282.47,460,280.62,456.19Z"/><path class="cls-4" d="M298,454.27h-6.44l-.95,8.55,8.24-.05C298.6,459.94,298.31,457.11,298,454.27Z"/><circle class="cls-4" cx="294.76" cy="504.41" r="14.29"/><rect class="cls-4" x="291.57" y="475.48" width="6.39" height="15.08"/><rect class="cls-4" x="307.56" y="494.6" width="15.08" height="6.39" transform="translate(-138.41 121.74) rotate(-18)"/><rect class="cls-4" x="304.14" y="514.17" width="6.39" height="15.08" transform="translate(-247.96 280.28) rotate(-36)"/><rect class="cls-4" x="274.65" y="518.52" width="15.08" height="6.39" transform="matrix(0.59, -0.81, 0.81, 0.59, -305.75, 443.35)"/><rect class="cls-4" x="271.22" y="490.26" width="6.39" height="15.08" transform="translate(-283.82 604.95) rotate(-72)"/><rect class="cls-4" x="291.57" y="475.48" width="6.39" height="15.08"/></g><g id="Layer_47" data-name="Layer 47"><circle class="cls-5" cx="355.37" cy="565.1" r="20.67"/><path class="cls-4" d="M357.25,536.19h-3.71l-.55,4.93,4.75,0Z"/><path class="cls-4" d="M367.06,538.59l-3.48-1.27-2.21,4.44,4.48,1.6Z"/><path class="cls-4" d="M375.46,544.19l-2.84-2.38L369,545.23l3.66,3Z"/><path class="cls-4" d="M381.44,552.33l-1.86-3.21-4.54,2,2.4,4.11Z"/><path class="cls-4" d="M384.27,562l-.64-3.65-4.95.31.85,4.68Z"/><path class="cls-4" d="M383.62,572.1l.64-3.65-4.76-1.4-.79,4.69Z"/><path class="cls-4" d="M379.56,581.35l1.85-3.21-4-2.94-2.35,4.13Z"/><path class="cls-4" d="M372.58,588.65l2.84-2.39-2.75-4.12-3.62,3.07Z"/><path class="cls-4" d="M363.52,593.12l3.49-1.27L365.84,587l-4.46,1.66Z"/><path class="cls-4" d="M353.48,594.23h3.71l.55-4.93-4.75,0Z"/><path class="cls-4" d="M343.67,591.83l3.49,1.27,2.2-4.44-4.47-1.6Z"/><path class="cls-4" d="M335.27,586.23l2.84,2.38,3.59-3.42-3.66-3Z"/><path class="cls-4" d="M329.3,578.09l1.85,3.21,4.54-2-2.4-4.1Z"/><path class="cls-4" d="M326.46,568.39l.65,3.66,4.95-.32-.86-4.67Z"/><path class="cls-4" d="M327.12,558.31l-.65,3.66,4.76,1.4.8-4.69Z"/><path class="cls-4" d="M331.18,549.07l-1.85,3.21,4,2.94,2.35-4.13Z"/><path class="cls-4" d="M338.16,541.77l-2.84,2.38,2.74,4.13,3.62-3.08Z"/><path class="cls-4" d="M347.21,537.3l-3.48,1.27,1.17,4.81,4.45-1.65Z"/><path class="cls-4" d="M357.25,536.19h-3.71l-.55,4.93,4.75,0Z"/><circle class="cls-4" cx="355.37" cy="565.1" r="8.24"/><rect class="cls-4" x="353.53" y="548.42" width="3.68" height="8.69"/><rect class="cls-4" x="362.75" y="559.44" width="8.69" height="3.68" transform="translate(-155.48 140.91) rotate(-18)"/><rect class="cls-4" x="360.77" y="570.73" width="3.68" height="8.69" transform="translate(-268.77 322.97) rotate(-36)"/><rect class="cls-4" x="343.77" y="573.23" width="8.69" height="3.68" transform="translate(-321.74 518.69) rotate(-54)"/><rect class="cls-4" x="341.8" y="556.94" width="3.68" height="8.69" transform="translate(-296.36 714.66) rotate(-72)"/><rect class="cls-4" x="353.53" y="548.42" width="3.68" height="8.69"/></g><g id="Layer_48" data-name="Layer 48"><circle class="cls-6" cx="830.44" cy="873.01" r="15.55"/><path class="cls-7" d="M831.86,851.26h-2.79l-.41,3.71,3.57,0Z"/><path class="cls-7" d="M839.24,853.07l-2.62-1L835,855.45l3.37,1.21Z"/><path class="cls-7" d="M845.56,857.28l-2.14-1.79-2.7,2.57,2.76,2.28Z"/><path class="cls-7" d="M850.06,863.41l-1.4-2.42-3.42,1.49,1.81,3.09Z"/><path class="cls-7" d="M852.19,870.7,851.7,868l-3.72.24.64,3.51Z"/><path class="cls-7" d="M851.7,878.28l.48-2.75-3.58-1L848,878Z"/><path class="cls-7" d="M848.64,885.24l1.4-2.42-3-2.21-1.77,3.11Z"/><path class="cls-7" d="M843.39,890.73l2.14-1.8-2.07-3.1-2.72,2.31Z"/><path class="cls-7" d="M836.58,894.09l2.62-1-.88-3.63L835,890.76Z"/><path class="cls-7" d="M829,894.92h2.79l.41-3.7-3.57,0Z"/><path class="cls-7" d="M821.65,893.12l2.62,1,1.65-3.34-3.36-1.21Z"/><path class="cls-7" d="M815.33,888.91l2.13,1.79,2.7-2.57-2.75-2.28Z"/><path class="cls-7" d="M810.83,882.78l1.39,2.42,3.42-1.5-1.8-3.08Z"/><path class="cls-7" d="M808.7,875.49l.48,2.75,3.73-.24-.65-3.51Z"/><path class="cls-7" d="M809.19,867.91l-.48,2.75,3.57,1.05.6-3.53Z"/><path class="cls-7" d="M812.25,861l-1.4,2.42,3,2.21,1.77-3.11Z"/><path class="cls-7" d="M817.5,855.46l-2.14,1.8,2.06,3.1,2.73-2.31Z"/><path class="cls-7" d="M824.31,852.1l-2.62.95.87,3.63,3.36-1.25Z"/><path class="cls-7" d="M831.86,851.26h-2.79l-.41,3.71,3.57,0Z"/><circle class="cls-7" cx="830.44" cy="873.01" r="6.2"/><rect class="cls-7" x="829.06" y="860.46" width="2.77" height="6.54"/><rect class="cls-7" x="836" y="868.76" width="6.54" height="2.77" transform="translate(-227.81 301.94) rotate(-18)"/><rect class="cls-7" x="834.51" y="877.25" width="2.77" height="6.54" transform="translate(-357.91 659.49) rotate(-36)"/><rect class="cls-7" x="821.72" y="879.13" width="6.54" height="2.77" transform="translate(-372.28 1030.39) rotate(-54)"/><rect class="cls-7" x="820.23" y="866.87" width="2.77" height="6.54" transform="translate(-259.83 1382.66) rotate(-72)"/><rect class="cls-7" x="829.06" y="860.46" width="2.77" height="6.54"/></g><g id="Layer_49" data-name="Layer 49"><circle class="cls-8" cx="277.99" cy="650.8" r="7.88"/><path class="cls-4" d="M278.71,639.78H277.3l-.21,1.88h1.81Z"/><path class="cls-4" d="M282.45,640.69l-1.33-.48-.84,1.69,1.71.61Z"/><path class="cls-4" d="M285.65,642.83l-1.08-.91-1.37,1.31,1.4,1.15Z"/><path class="cls-4" d="M287.93,645.93l-.7-1.22-1.74.76.92,1.56Z"/><path class="cls-4" d="M289,649.63l-.24-1.39-1.89.12.33,1.78Z"/><path class="cls-4" d="M288.76,653.47l.25-1.39-1.81-.53-.31,1.78Z"/><path class="cls-4" d="M287.22,657l.7-1.23-1.52-1.12-.9,1.58Z"/><path class="cls-4" d="M284.55,659.78l1.09-.91-1.05-1.57-1.38,1.17Z"/><path class="cls-4" d="M281.1,661.49l1.33-.48-.44-1.84-1.7.63Z"/><path class="cls-4" d="M277.27,661.91h1.42l.21-1.88h-1.81Z"/><path class="cls-4" d="M273.53,661l1.33.48.84-1.69-1.71-.61Z"/><path class="cls-4" d="M270.33,658.86l1.08.91,1.37-1.3-1.39-1.16Z"/><path class="cls-4" d="M268.05,655.76l.71,1.22,1.73-.76-.92-1.56Z"/><path class="cls-4" d="M267,652.06l.25,1.39,1.88-.12-.32-1.78Z"/><path class="cls-4" d="M267.22,648.22l-.25,1.39,1.82.53.3-1.78Z"/><path class="cls-4" d="M268.77,644.69l-.71,1.23,1.52,1.12.9-1.58Z"/><path class="cls-4" d="M271.43,641.91l-1.08.91,1,1.57,1.38-1.17Z"/><path class="cls-4" d="M274.88,640.2l-1.33.49.45,1.83,1.7-.63Z"/><path class="cls-4" d="M278.71,639.78H277.3l-.21,1.88h1.81Z"/><circle class="cls-4" cx="277.99" cy="650.8" r="3.14"/><rect class="cls-4" x="277.29" y="644.44" width="1.4" height="3.32"/><rect class="cls-4" x="280.81" y="648.65" width="3.32" height="1.4" transform="translate(-186.84 119.07) rotate(-18)"/><rect class="cls-4" x="280.05" y="652.95" width="1.4" height="3.32" transform="translate(-331.15 290.04) rotate(-36)"/><rect class="cls-4" x="273.57" y="653.9" width="3.32" height="1.4" transform="translate(-416.14 492.5) rotate(-54)"/><rect class="cls-4" x="272.82" y="647.69" width="1.4" height="3.32" transform="translate(-428.57 708.82) rotate(-72)"/><rect class="cls-4" x="277.29" y="644.44" width="1.4" height="3.32"/></g><g id="Layer_36" data-name="Layer 36"><circle class="cls-9" cx="287.34" cy="596.31" r="31.3"/><path class="cls-10" d="M290,556.24h-5.14l-.76,6.83,6.59,0Z"/><path class="cls-10" d="M303.55,559.56l-4.84-1.76-3,6.16,6.21,2.21Z"/><path class="cls-10" d="M315.19,567.32l-3.94-3.3-5,4.74,5.07,4.2Z"/><path class="cls-10" d="M323.47,578.6l-2.58-4.45-6.29,2.75,3.33,5.69Z"/><path class="cls-10" d="M327.39,592,326.5,587l-6.86.43,1.18,6.48Z"/><path class="cls-10" d="M326.48,606l.89-5.07L320.78,599l-1.1,6.5Z"/><path class="cls-10" d="M320.85,618.8l2.58-4.45-5.54-4.07L314.63,616Z"/><path class="cls-10" d="M311.18,628.92l3.94-3.31-3.8-5.72-5,4.27Z"/><path class="cls-10" d="M298.64,635.11l4.83-1.76-1.62-6.67L295.68,629C296.66,631,297.65,633.06,298.64,635.11Z"/><path class="cls-10" d="M284.73,636.64h5.14l.77-6.83-6.59,0C284.28,632.12,284.5,634.38,284.73,636.64Z"/><path class="cls-10" d="M271.14,633.33l4.83,1.76,3.06-6.16-6.21-2.22Z"/><path class="cls-10" d="M259.5,625.56l3.94,3.31,5-4.75-5.08-4.2Z"/><path class="cls-10" d="M251.22,614.28l2.57,4.46,6.3-2.76-3.33-5.68Z"/><path class="cls-10" d="M247.3,600.85l.89,5.07,6.86-.44L253.87,599Z"/><path class="cls-10" d="M248.21,586.89l-.9,5.06,6.6,1.94,1.1-6.49Z"/><path class="cls-10" d="M253.83,574.08l-2.57,4.45,5.54,4.08,3.25-5.73Z"/><path class="cls-10" d="M263.5,564l-3.94,3.3,3.81,5.73,5-4.27Z"/><path class="cls-10" d="M276.05,557.77l-4.84,1.76,1.62,6.68,6.18-2.29Z"/><path class="cls-10" d="M290,556.24h-5.14l-.76,6.83,6.59,0Z"/><circle class="cls-10" cx="287.34" cy="596.31" r="7.49"/></g><g id="Layer_37" data-name="Layer 37"><circle class="cls-11" cx="451.5" cy="588.66" r="46.39"/><path class="cls-7" d="M455.73,523.78h-8.32l-1.24,11.06,10.67-.07Z"/><path class="cls-7" d="M477.75,529.15l-7.82-2.84-4.94,10,10,3.59Q476.4,534.5,477.75,529.15Z"/><path class="cls-7" d="M496.61,541.74l-6.38-5.36-8.05,7.68,8.21,6.81Q493.5,546.3,496.61,541.74Z"/><path class="cls-7" d="M510,560l-4.17-7.21-10.19,4.46,5.39,9.2Z"/><path class="cls-7" d="M516.38,581.77l-1.44-8.2-11.11.7,1.92,10.5Z"/><path class="cls-7" d="M514.91,604.39l1.45-8.2-10.68-3.14-1.79,10.52Z"/><path class="cls-7" d="M505.8,625.14l4.16-7.21-9-6.6-5.28,9.27Z"/><path class="cls-7" d="M490.13,641.53l6.38-5.36-6.16-9.26-8.13,6.91Z"/><path class="cls-7" d="M469.81,651.57l7.82-2.85L475,637.9l-10,3.71Z"/><path class="cls-7" d="M447.28,654.05h8.32L456.84,643l-10.67.06Z"/><path class="cls-7" d="M425.25,648.67l7.83,2.85,4.94-10L428,638Q426.62,643.31,425.25,648.67Z"/><path class="cls-7" d="M406.4,636.09l6.38,5.35,8.05-7.67L412.62,627Q409.5,631.52,406.4,636.09Z"/><path class="cls-7" d="M393,617.82l4.17,7.21,10.19-4.46L402,611.36Z"/><path class="cls-7" d="M386.62,596.06l1.45,8.2,11.11-.7-1.92-10.5Z"/><path class="cls-7" d="M388.09,573.44l-1.44,8.2,10.67,3.14,1.79-10.52Z"/><path class="cls-7" d="M397.21,552.68l-4.16,7.22,9,6.6,5.27-9.28Z"/><path class="cls-7" d="M412.88,536.3l-6.38,5.35,6.16,9.27,8.13-6.91Z"/><path class="cls-7" d="M433.2,526.26l-7.82,2.85L428,539.92l10-3.71Z"/><path class="cls-7" d="M455.73,523.78h-8.32l-1.24,11.06,10.67-.07Z"/><circle class="cls-7" cx="451.5" cy="588.66" r="18.5"/><rect class="cls-7" x="447.37" y="551.22" width="8.27" height="19.52"/><rect class="cls-7" x="468.07" y="575.97" width="19.52" height="8.27" transform="translate(-155.88 176.05) rotate(-18)"/><rect class="cls-7" x="463.64" y="601.3" width="8.27" height="19.52" transform="matrix(0.81, -0.59, 0.59, 0.81, -269.83, 391.65)"/><rect class="cls-7" x="425.47" y="606.92" width="19.52" height="8.27" transform="translate(-314.95 604) rotate(-54)"/><rect class="cls-7" x="421.04" y="570.35" width="8.27" height="19.52" transform="translate(-257.92 805.21) rotate(-72)"/><rect class="cls-7" x="447.37" y="551.22" width="8.27" height="19.52"/></g><g id="Layer_38" data-name="Layer 38"><circle class="cls-12" cx="359.05" cy="630.69" r="22.98"/><path class="cls-4" d="M361.1,598.54H357l-.61,5.48,5.29,0Z"/><path class="cls-4" d="M372,601.21l-3.88-1.41-2.44,4.94,5,1.77Z"/><path class="cls-4" d="M381.36,607.44l-3.17-2.65-4,3.81,4.07,3.37Z"/><path class="cls-4" d="M388,616.49l-2.07-3.57-5.05,2.21,2.68,4.56Z"/><path class="cls-4" d="M391.16,627.27l-.72-4.06-5.51.35,1,5.2Z"/><path class="cls-4" d="M390.43,638.48l.71-4.07-5.29-1.54-.88,5.21Z"/><path class="cls-4" d="M385.92,648.76l2.06-3.57-4.45-3.27-2.61,4.6Z"/><path class="cls-4" d="M378.16,656.88l3.15-2.65-3.05-4.59-4,3.43Z"/><path class="cls-4" d="M368.09,661.86l3.87-1.42-1.3-5.35-5,1.84Z"/><path class="cls-4" d="M356.92,663.09h4.13l.61-5.48-5.29,0Z"/><path class="cls-4" d="M346,660.43l3.88,1.41,2.44-5-5-1.77Z"/><path class="cls-4" d="M336.67,654.2l3.16,2.64,4-3.8-4.07-3.37Z"/><path class="cls-4" d="M330,645.14l2.07,3.58,5.05-2.22-2.68-4.56Z"/><path class="cls-4" d="M326.87,634.36l.72,4.07,5.5-.36-.95-5.2Z"/><path class="cls-4" d="M327.59,623.16l-.71,4.06,5.29,1.55.88-5.21Z"/><path class="cls-4" d="M332.11,612.87l-2.06,3.58,4.44,3.26,2.61-4.59Z"/><path class="cls-4" d="M339.87,604.75l-3.16,2.66,3.06,4.59,4-3.43Z"/><path class="cls-4" d="M349.94,599.78l-3.88,1.41,1.31,5.36,4.95-1.84Z"/><path class="cls-4" d="M361.1,598.54H357l-.61,5.48,5.29,0Z"/><circle class="cls-4" cx="359.05" cy="630.69" r="9.16"/><rect class="cls-4" x="356.98" y="612.14" width="4.1" height="9.67" transform="matrix(1, 0, 0, 1, -0.77, 0.45)"/><rect class="cls-4" x="367.24" y="624.41" width="9.67" height="4.1" transform="translate(-175.98 146.33) rotate(-18.07)"/><rect class="cls-4" x="365.04" y="636.95" width="4.1" height="9.67" transform="translate(-307.51 339.19) rotate(-36.07)"/><rect class="cls-4" x="346.13" y="639.74" width="9.67" height="4.1" transform="translate(-374.66 549.4) rotate(-54.07)"/><rect class="cls-4" x="343.94" y="621.62" width="4.1" height="9.67" transform="translate(-356.55 762.8) rotate(-72.07)"/><rect class="cls-4" x="356.98" y="612.14" width="4.1" height="9.67" transform="translate(-0.77 0.45) rotate(-0.07)"/></g><g id="Layer_39" data-name="Layer 39"><circle class="cls-13" cx="312.86" cy="646.55" r="11.22"/><path class="cls-10" d="M313.8,632.18H312l-.27,2.45H314Z"/><path class="cls-10" d="M318.67,633.37l-1.73-.63-1.1,2.21,2.23.79Z"/><path class="cls-10" d="M322.84,636.16,321.43,635l-1.78,1.7,1.82,1.51Z"/><path class="cls-10" d="M325.81,640.2l-.92-1.6-2.26,1,1.2,2Z"/><path class="cls-10" d="M327.22,645l-.32-1.81-2.46.15.42,2.33Z"/><path class="cls-10" d="M326.89,650l.32-1.82-2.36-.69-.4,2.33Z"/><path class="cls-10" d="M324.88,654.61l.92-1.59-2-1.47-1.17,2.06Z"/><path class="cls-10" d="M321.41,658.24l1.41-1.19-1.36-2-1.8,1.53Z"/><path class="cls-10" d="M316.91,660.46l1.73-.63-.58-2.4-2.21.82Z"/><path class="cls-10" d="M311.93,661h1.84l.27-2.45h-2.36Z"/><path class="cls-10" d="M307.05,659.82l1.74.63,1.09-2.21-2.22-.79Z"/><path class="cls-10" d="M302.88,657l1.41,1.19,1.79-1.7L304.26,655Z"/><path class="cls-10" d="M299.91,653l.92,1.6,2.26-1-1.19-2Z"/><path class="cls-10" d="M298.51,648.18l.32,1.81,2.45-.15-.42-2.33Z"/><path class="cls-10" d="M298.83,643.17l-.32,1.82,2.36.69.4-2.33Z"/><path class="cls-10" d="M300.85,638.58l-.92,1.59,2,1.47,1.17-2.06Z"/><path class="cls-10" d="M304.31,635l-1.41,1.19,1.37,2.05,1.8-1.53Z"/><path class="cls-10" d="M308.81,632.73l-1.73.63.58,2.4,2.21-.82Z"/><path class="cls-10" d="M313.8,632.18H312l-.27,2.45H314Z"/><circle class="cls-10" cx="312.86" cy="646.55" r="2.68"/></g><g id="Layer_41" data-name="Layer 41"><circle class="cls-14" cx="599.15" cy="575.94" r="66.34"/><path class="cls-4" d="M604.69,491h-10.9l-1.62,14.48,14-.09Z"/><path class="cls-4" d="M633.49,498.05l-10.24-3.73-6.47,13.05,13.15,4.7Q631.72,505.06,633.49,498.05Z"/><path class="cls-4" d="M658.15,514.51l-8.34-7-10.55,10L650,526.46Q654.09,520.49,658.15,514.51Z"/><path class="cls-4" d="M675.7,538.41,670.25,529l-13.34,5.84L664,546.86Z"/><path class="cls-4" d="M684,566.87l-1.9-10.73-14.53.92,2.51,13.74Z"/><path class="cls-4" d="M682.09,596.46l1.9-10.73-14-4.11-2.34,13.77Z"/><path class="cls-4" d="M670.17,623.61l5.45-9.44-11.73-8.64L657,617.67Z"/><path class="cls-4" d="M649.68,645l8.34-7L650,625.91l-10.64,9Z"/><path class="cls-4" d="M623.09,658.17l10.24-3.73-3.43-14.15-13.09,4.85Q619.94,651.67,623.09,658.17Z"/><path class="cls-4" d="M593.62,661.41h10.9l1.61-14.47-14,.09Q592.89,654.22,593.62,661.41Z"/><path class="cls-4" d="M564.81,654.38l10.24,3.73,6.47-13.05-13.15-4.69Q566.6,647.38,564.81,654.38Z"/><path class="cls-4" d="M540.15,637.93l8.35,7,10.54-10L548.29,626Z"/><path class="cls-4" d="M522.6,614l5.45,9.44,13.35-5.83-7.06-12Z"/><path class="cls-4" d="M514.29,585.56l1.89,10.73,14.54-.92-2.51-13.73Z"/><path class="cls-4" d="M516.21,556l-1.89,10.74,14,4.1,2.34-13.76Z"/><path class="cls-4" d="M528.14,528.83l-5.45,9.43,11.72,8.64,6.91-12.13Z"/><path class="cls-4" d="M548.63,507.4l-8.35,7,8.06,12.13,10.65-9Z"/><path class="cls-4" d="M575.21,494.27,565,498l3.43,14.16,13.09-4.86Q578.36,500.78,575.21,494.27Z"/><path class="cls-4" d="M604.69,491h-10.9l-1.62,14.48,14-.09Z"/><circle class="cls-4" cx="599.15" cy="575.94" r="15.87"/></g><g id="Layer_42" data-name="Layer 42"><circle class="cls-15" cx="518.71" cy="640.47" r="15.93"/><path class="cls-4" d="M520,620.08h-2.61l-.39,3.47,3.35,0Z"/><path class="cls-4" d="M527,621.77l-2.46-.9L522.94,624l3.15,1.12Z"/><path class="cls-4" d="M532.87,625.72l-2-1.68-2.53,2.41,2.58,2.14Z"/><path class="cls-4" d="M537.08,631.46l-1.3-2.27-3.21,1.4,1.7,2.9Z"/><path class="cls-4" d="M539.08,638.29l-.45-2.58-3.49.22.6,3.3Z"/><path class="cls-4" d="M538.62,645.39l.45-2.57-3.35-1-.56,3.31Z"/><path class="cls-4" d="M535.76,651.91l1.3-2.26-2.81-2.08-1.66,2.92Z"/><path class="cls-4" d="M530.84,657.06l2-1.69-1.94-2.91-2.55,2.17Z"/><path class="cls-4" d="M524.45,660.21l2.46-.9-.82-3.39-3.15,1.16Z"/><path class="cls-4" d="M517.38,661H520l.39-3.48-3.35,0Z"/><path class="cls-4" d="M510.46,659.3l2.46.9,1.55-3.14-3.15-1.13Z"/><path class="cls-4" d="M504.54,655.35l2,1.68,2.54-2.41-2.59-2.14Z"/><path class="cls-4" d="M500.33,649.61l1.31,2.27,3.2-1.4-1.7-2.9Z"/><path class="cls-4" d="M498.33,642.78l.46,2.57,3.48-.22-.6-3.3Z"/><path class="cls-4" d="M498.79,635.67l-.45,2.58,3.35,1,.56-3.31Z"/><path class="cls-4" d="M501.66,629.16l-1.31,2.26,2.81,2.08,1.66-2.92Z"/><path class="cls-4" d="M506.58,624l-2,1.68,1.94,2.91,2.55-2.17Z"/><path class="cls-4" d="M513,620.86l-2.46.89.82,3.4,3.15-1.16Z"/><path class="cls-4" d="M520,620.08h-2.61l-.39,3.47,3.35,0Z"/><circle class="cls-4" cx="518.71" cy="640.47" r="3.81"/></g><g id="Layer_43" data-name="Layer 43"><circle class="cls-16" cx="385.17" cy="496.92" r="30.85"/><path class="cls-2" d="M387.75,457.43h-5.07l-.75,6.73,6.49,0C388.2,461.89,388,459.66,387.75,457.43Z"/><path class="cls-2" d="M401.14,460.69,396.38,459l-3,6.07,6.12,2.18Z"/><path class="cls-2" d="M412.61,468.35l-3.88-3.26-4.9,4.67,5,4.15Z"/><path class="cls-2" d="M420.77,479.46l-2.53-4.38L412,477.79l3.29,5.6Z"/><path class="cls-2" d="M424.64,492.7l-.88-5-6.76.43,1.17,6.39Z"/><path class="cls-2" d="M423.75,506.46l.88-5-6.5-1.91L417,506Z"/><path class="cls-2" d="M418.2,519.09l2.53-4.39-5.45-4-3.21,5.64Z"/><path class="cls-2" d="M408.67,529.05l3.88-3.26-3.75-5.64-4.95,4.21Z"/><path class="cls-2" d="M396.31,535.16l4.76-1.74-1.6-6.58-6.08,2.26Q394.85,532.13,396.31,535.16Z"/><path class="cls-2" d="M382.6,536.67h5.07l.75-6.73-6.49,0C382.15,532.21,382.38,534.44,382.6,536.67Z"/><path class="cls-2" d="M369.2,533.4l4.77,1.73,3-6.07-6.12-2.18Q370,530.14,369.2,533.4Z"/><path class="cls-2" d="M357.73,525.74l3.89,3.26,4.9-4.67-5-4.15Q359.63,523,357.73,525.74Z"/><path class="cls-2" d="M349.57,514.63l2.54,4.39,6.2-2.72L355,510.7Z"/><path class="cls-2" d="M345.71,501.39l.88,5,6.76-.43-1.17-6.38Z"/><path class="cls-2" d="M346.6,487.63l-.88,5,6.5,1.91,1.09-6.4Z"/><path class="cls-2" d="M352.15,475l-2.54,4.39,5.46,4,3.21-5.64Z"/><path class="cls-2" d="M361.68,465l-3.88,3.26,3.75,5.64,4.94-4.21Z"/><path class="cls-2" d="M374,458.93l-4.76,1.74,1.59,6.58L377,465Q375.51,462,374,458.93Z"/><path class="cls-2" d="M387.75,457.43h-5.07l-.75,6.73,6.49,0C388.2,461.89,388,459.66,387.75,457.43Z"/><circle class="cls-2" cx="385.17" cy="496.92" r="7.38"/></g><g id="Layer_44" data-name="Layer 44"><circle class="cls-17" cx="343.69" cy="464.38" r="7.83"/><path class="cls-4" d="M344.41,453.43H343l-.21,1.86h1.8Z"/><path class="cls-4" d="M348.13,454.33l-1.33-.48-.83,1.69,1.7.6Z"/><path class="cls-4" d="M351.31,456.46l-1.08-.91-1.36,1.3,1.39,1.15Z"/><path class="cls-4" d="M353.57,459.54l-.7-1.22-1.72.76.91,1.55Z"/><path class="cls-4" d="M354.65,463.22l-.25-1.39-1.87.12.32,1.77Z"/><path class="cls-4" d="M354.4,467l.24-1.39-1.8-.53-.3,1.78Z"/><path class="cls-4" d="M352.86,470.54l.7-1.22-1.51-1.11-.89,1.56Z"/><path class="cls-4" d="M350.22,473.31l1.07-.91-1-1.56L348.88,472Z"/><path class="cls-4" d="M346.78,475l1.33-.48-.45-1.82-1.69.62Z"/><path class="cls-4" d="M343,475.42h1.41l.2-1.87-1.8,0Z"/><path class="cls-4" d="M339.26,474.51l1.32.48.84-1.68-1.7-.6Z"/><path class="cls-4" d="M336.08,472.39l1.07.9,1.36-1.29-1.38-1.15Z"/><path class="cls-4" d="M333.81,469.3l.7,1.22,1.73-.75-.91-1.56Z"/><path class="cls-4" d="M332.74,465.63,333,467l1.88-.11-.33-1.78Z"/><path class="cls-4" d="M333,461.81l-.25,1.38,1.8.53.31-1.77Z"/><path class="cls-4" d="M334.53,458.31l-.71,1.21,1.52,1.12.89-1.57Z"/><path class="cls-4" d="M337.17,455.54l-1.08.9,1,1.57,1.38-1.17Z"/><path class="cls-4" d="M340.6,453.84l-1.32.49.44,1.82,1.69-.63Z"/><path class="cls-4" d="M344.41,453.43H343l-.21,1.86h1.8Z"/><circle class="cls-4" cx="343.69" cy="464.38" r="3.12"/><rect class="cls-4" x="343" y="458.06" width="1.4" height="3.3"/><rect class="cls-4" x="346.49" y="462.24" width="3.3" height="1.4" transform="translate(-126.02 130.24) rotate(-18)"/><rect class="cls-4" x="345.74" y="466.51" width="1.4" height="3.3" transform="translate(-209.01 293.04) rotate(-36)"/><rect class="cls-4" x="339.3" y="467.46" width="3.3" height="1.4" transform="translate(-238.21 468.81) rotate(-54)"/><rect class="cls-4" x="338.55" y="461.29" width="1.4" height="3.3" transform="translate(-205.86 642.52) rotate(-72)"/><rect class="cls-4" x="343" y="458.06" width="1.4" height="3.3"/></g><g id="Layer_45" data-name="Layer 45"><circle class="cls-18" cx="506.97" cy="495.01" r="31.97"/><path class="cls-4" d="M509.64,454.09h-5.25l-.78,7,6.73,0C510.11,458.71,509.87,456.4,509.64,454.09Z"/><path class="cls-4" d="M523.52,457.48l-4.93-1.8L515.47,462l6.34,2.26Z"/><path class="cls-4" d="M535.41,465.41l-4-3.38-5.08,4.84,5.18,4.3Z"/><path class="cls-4" d="M543.87,476.93l-2.63-4.55-6.43,2.81,3.4,5.81Z"/><path class="cls-4" d="M547.88,490.65l-.92-5.18-7,.45,1.21,6.62Z"/><path class="cls-4" d="M547,504.91l.91-5.18-6.73-2L540,504.39Z"/><path class="cls-4" d="M541.2,518l2.63-4.55-5.65-4.16-3.33,5.85Z"/><path class="cls-4" d="M531.32,528.32l4-3.38-3.89-5.84-5.13,4.36Z"/><path class="cls-4" d="M518.51,534.65l4.94-1.8L521.79,526l-6.31,2.34Z"/><path class="cls-4" d="M504.31,536.21h5.25l.78-7-6.73,0Q504,532.75,504.31,536.21Z"/><path class="cls-4" d="M490.42,532.82l4.94,1.8,3.12-6.29-6.34-2.26C491.57,528.32,491,530.57,490.42,532.82Z"/><path class="cls-4" d="M478.53,524.89l4,3.38,5.08-4.84-5.18-4.3Z"/><path class="cls-4" d="M470.08,513.37l2.62,4.55,6.44-2.81-3.41-5.81Z"/><path class="cls-4" d="M466.07,499.65l.91,5.18,7-.45-1.21-6.62Z"/><path class="cls-4" d="M467,485.39l-.92,5.18,6.74,2,1.13-6.63Z"/><path class="cls-4" d="M472.74,472.31l-2.62,4.55,5.65,4.16,3.33-5.85Z"/><path class="cls-4" d="M482.62,462l-4,3.38,3.88,5.84,5.13-4.36Z"/><path class="cls-4" d="M495.44,455.65l-4.94,1.8,1.65,6.82,6.31-2.34C497.45,459.84,496.44,457.74,495.44,455.65Z"/><path class="cls-4" d="M509.64,454.09h-5.25l-.78,7,6.73,0C510.11,458.71,509.87,456.4,509.64,454.09Z"/><circle class="cls-4" cx="506.97" cy="495.01" r="7.65"/></g><g id="Layer_46" data-name="Layer 46"><circle class="cls-19" cx="318.65" cy="1059.15" r="70.9"/><path class="cls-20" d="M325.11,960H312.38l-1.89,16.9,16.31-.1Q325.95,968.4,325.11,960Z"/><path class="cls-20" d="M358.63,968.19l-12-4.35-7.55,15.23,15.35,5.49Z"/><path class="cls-20" d="M387.33,987.35l-9.75-8.18L365.27,990.9l12.56,10.41Z"/><path class="cls-20" d="M407.75,1015.17l-6.37-11L385.8,1011,394,1025Z"/><path class="cls-20" d="M417.42,1048.3l-2.21-12.53-17,1.07,2.93,16Z"/><path class="cls-20" d="M415.17,1082.74l2.21-12.54-16.32-4.79-2.73,16.07Z"/><path class="cls-20" d="M401.28,1114.33l6.37-11L394,1093.22l-8.06,14.17Z"/><path class="cls-20" d="M377.43,1139.26l9.75-8.18-9.42-14.16-12.42,10.56Z"/><path class="cls-20" d="M346.49,1154.54l11.95-4.35q-2-8.26-4-16.53l-15.29,5.67Z"/><path class="cls-20" d="M312.18,1158.31h12.73l1.89-16.9-16.31.1Q311.35,1149.91,312.18,1158.31Z"/><path class="cls-20" d="M278.66,1150.12l12,4.35q3.78-7.62,7.55-15.24l-15.35-5.48Z"/><path class="cls-20" d="M250,1131l9.75,8.18L272,1127.4,259.47,1117Z"/><path class="cls-20" d="M229.54,1103.13l6.37,11,15.58-6.82-8.24-14.07Z"/><path class="cls-20" d="M219.88,1070l2.21,12.53,17-1.07-2.93-16Z"/><path class="cls-20" d="M222.12,1035.57l-2.21,12.53,16.32,4.8,2.73-16.07Z"/><path class="cls-20" d="M236,1004l-6.37,11,13.7,10.09,8.06-14.17Z"/><path class="cls-20" d="M259.86,979l-9.75,8.18,9.42,14.17L272,990.83Z"/><path class="cls-20" d="M290.81,963.77l-12,4.35q2,8.26,4,16.53L298.14,979Z"/><path class="cls-20" d="M325.11,960H312.38l-1.89,16.9,16.31-.1Q325.95,968.4,325.11,960Z"/><circle class="cls-20" cx="318.65" cy="1059.15" r="28.27"/><rect class="cls-20" x="312.33" y="1001.93" width="12.64" height="29.83"/><rect class="cls-20" x="343.97" y="1039.76" width="29.83" height="12.64" transform="translate(-305.69 162.1) rotate(-18)"/><rect class="cls-20" x="337.19" y="1078.47" width="12.64" height="29.83" transform="translate(-577.07 410.73) rotate(-36)"/><rect class="cls-20" x="278.87" y="1087.06" width="29.83" height="12.64" transform="translate(-763.46 688.38) rotate(-54)"/><rect class="cls-20" x="272.09" y="1031.17" width="12.64" height="29.83" transform="translate(-802.51 987.61) rotate(-72)"/><rect class="cls-20" x="312.33" y="1001.93" width="12.64" height="29.83"/></g><g id="Layer_23" data-name="Layer 23"><circle class="cls-21" cx="445.3" cy="473.7" r="14.86"/><path class="cls-4" d="M446.65,452.91H444l-.39,3.54,3.42,0Z"/><path class="cls-4" d="M453.71,454.63l-2.51-.91-1.58,3.19,3.22,1.15Z"/><path class="cls-4" d="M459.75,458.66l-2-1.71-2.58,2.46,2.63,2.18Z"/><path class="cls-4" d="M464.05,464.52l-1.33-2.31-3.27,1.43,1.73,2.95Z"/><path class="cls-4" d="M466.09,471.49l-.47-2.63-3.56.23.62,3.36Z"/><path class="cls-4" d="M465.62,478.74l.46-2.63-3.42-1-.57,3.37Z"/><path class="cls-4" d="M462.69,485.39l1.34-2.31L461.16,481l-1.69,3Z"/><path class="cls-4" d="M457.67,490.64l2.05-1.72-2-3-2.6,2.22Z"/><path class="cls-4" d="M451.16,493.86l2.51-.92-.84-3.46-3.21,1.19Z"/><path class="cls-4" d="M443.94,494.65h2.67l.4-3.54-3.42,0Z"/><path class="cls-4" d="M436.89,492.93l2.5.91,1.59-3.19-3.22-1.15Z"/><path class="cls-4" d="M430.84,488.9l2.05,1.71,2.58-2.46L432.84,486Z"/><path class="cls-4" d="M426.54,483l1.34,2.31,3.27-1.43L429.42,481Z"/><path class="cls-4" d="M424.51,476.07l.46,2.63,3.56-.23-.61-3.36Z"/><path class="cls-4" d="M425,468.82l-.46,2.63,3.42,1,.57-3.37Z"/><path class="cls-4" d="M427.9,462.17l-1.33,2.31,2.87,2.12,1.69-3Z"/><path class="cls-4" d="M432.92,456.92l-2,1.72,2,3,2.61-2.21Z"/><path class="cls-4" d="M439.43,453.7l-2.51.92.84,3.46,3.21-1.19Z"/><path class="cls-4" d="M446.65,452.91H444l-.39,3.54,3.42,0Z"/><circle class="cls-4" cx="445.3" cy="473.7" r="5.93"/><rect class="cls-4" x="443.97" y="461.7" width="2.65" height="6.25"/><rect class="cls-4" x="450.61" y="469.63" width="6.25" height="2.65" transform="translate(-123.33 163.26) rotate(-18)"/><rect class="cls-4" x="449.19" y="477.75" width="2.65" height="6.25" transform="translate(-196.61 356.64) rotate(-36)"/><rect class="cls-4" x="436.96" y="479.55" width="6.25" height="2.65" transform="translate(-207.63 554.26) rotate(-54)"/><rect class="cls-4" x="435.54" y="467.83" width="2.65" height="6.25" transform="translate(-146.04 740.9) rotate(-72)"/><rect class="cls-4" x="443.97" y="461.7" width="2.65" height="6.25"/></g><g id="Layer_24" data-name="Layer 24"><circle class="cls-22" cx="737.96" cy="512.76" r="49.2"/><path class="cls-4" d="M742.44,444h-8.83l-1.31,11.72,11.32-.06Q743,449.78,742.44,444Z"/><path class="cls-4" d="M765.8,449.65l-8.3-3-5.24,10.58,10.65,3.8Q764.37,455.33,765.8,449.65Z"/><path class="cls-4" d="M785.8,463,779,457.31l-8.54,8.15,8.71,7.22Z"/><path class="cls-4" d="M800,482.37l-4.42-7.65-10.81,4.73,5.72,9.76Z"/><path class="cls-4" d="M806.77,505.45l-1.53-8.7-11.78.74,2,11.14Z"/><path class="cls-4" d="M805.21,529.44l1.53-8.7-11.32-3.33-1.9,11.16Z"/><path class="cls-4" d="M795.54,551.45,800,543.8l-9.5-7-5.6,9.83Z"/><path class="cls-4" d="M778.93,568.83l6.76-5.68-6.53-9.83-8.63,7.33Z"/><path class="cls-4" d="M757.37,579.47l8.3-3L762.89,565l-10.61,3.94Q754.83,574.2,757.37,579.47Z"/><path class="cls-4" d="M733.48,582.1h8.83l1.31-11.72-11.32.06Q732.89,576.28,733.48,582.1Z"/><path class="cls-4" d="M710.12,576.4l8.3,3,5.24-10.58L713,565.05Z"/><path class="cls-4" d="M690.12,563.06l6.77,5.68,8.54-8.15-8.71-7.22Z"/><path class="cls-4" d="M675.89,543.68l4.42,7.65,10.81-4.73-5.72-9.77Z"/><path class="cls-4" d="M669.15,520.6l1.53,8.7,11.78-.74-2-11.14Z"/><path class="cls-4" d="M670.71,496.61l-1.53,8.7,11.32,3.33,1.9-11.16Z"/><path class="cls-4" d="M680.38,474.6,676,482.25l9.5,7,5.6-9.83Z"/><path class="cls-4" d="M697,457.22l-6.76,5.68,6.53,9.83,8.63-7.33Z"/><path class="cls-4" d="M718.55,446.58l-8.3,3L713,461.07l10.61-3.94Q721.09,451.85,718.55,446.58Z"/><path class="cls-4" d="M742.44,444h-8.83l-1.31,11.72,11.32-.06Q743,449.78,742.44,444Z"/><circle class="cls-4" cx="737.96" cy="512.76" r="19.62"/><rect class="cls-4" x="733.57" y="473.05" width="8.77" height="20.7"/><rect class="cls-4" x="755.53" y="499.3" width="20.7" height="8.77" transform="translate(-118.16 261.32) rotate(-18)"/><rect class="cls-4" x="750.83" y="526.16" width="8.77" height="20.7" transform="translate(-171.12 546.37) rotate(-36)"/><rect class="cls-4" x="710.35" y="532.12" width="20.7" height="8.77" transform="translate(-136.96 804.22) rotate(-54)"/><rect class="cls-4" x="705.65" y="493.33" width="8.77" height="20.7" transform="translate(11.59 1023.32) rotate(-72)"/><rect class="cls-4" x="733.57" y="473.05" width="8.77" height="20.7"/></g><g id="Layer_25" data-name="Layer 25"><circle class="cls-23" cx="442.24" cy="512.55" r="9.84"/><path class="cls-4" d="M443.06,500h-1.61l-.24,2.15h2.07Z"/><path class="cls-4" d="M447.34,501l-1.52-.55-1,1.94,1.95.69Z"/><path class="cls-4" d="M451,503.44l-1.24-1-1.57,1.49,1.6,1.32Z"/><path class="cls-4" d="M453.6,507l-.81-1.4-2,.87,1.05,1.79Z"/><path class="cls-4" d="M454.83,511.21l-.28-1.6-2.15.14.37,2Z"/><path class="cls-4" d="M454.55,515.6l.28-1.6-2.07-.61-.35,2.05Z"/><path class="cls-4" d="M452.78,519.63l.81-1.41-1.74-1.28-1,1.8Z"/><path class="cls-4" d="M449.74,522.81l1.24-1-1.2-1.8-1.58,1.34Z"/><path class="cls-4" d="M445.79,524.75l1.52-.55-.5-2.1-1.95.72Z"/><path class="cls-4" d="M441.42,525.23H443l.24-2.14h-2.07Z"/><path class="cls-4" d="M437.15,524.19l1.52.55,1-1.93-1.95-.7Z"/><path class="cls-4" d="M433.49,521.75l1.24,1,1.56-1.49-1.6-1.32Z"/><path class="cls-4" d="M430.88,518.2l.81,1.4,2-.86-1-1.79Z"/><path class="cls-4" d="M429.65,514l.28,1.59,2.16-.13-.37-2Z"/><path class="cls-4" d="M429.93,509.59l-.28,1.59,2.08.61.34-2Z"/><path class="cls-4" d="M431.7,505.56l-.8,1.4,1.74,1.28,1-1.8Z"/><path class="cls-4" d="M434.75,502.38l-1.24,1,1.19,1.8,1.58-1.34Z"/><path class="cls-4" d="M438.69,500.43l-1.52.56.51,2.1,1.94-.72Z"/><path class="cls-4" d="M443.06,500h-1.61l-.24,2.15h2.07Z"/><circle class="cls-4" cx="442.24" cy="512.55" r="2.35"/></g><g id="Layer_26" data-name="Layer 26"><circle class="cls-24" cx="764.15" cy="965.3" r="61.69"/><path class="cls-2" d="M769.77,879H758.7l-1.65,14.71,14.19-.09Z"/><path class="cls-2" d="M799.06,886.16l-10.41-3.79-6.57,13.26,13.36,4.77Z"/><path class="cls-2" d="M824.14,902.89l-8.49-7.12L804.94,906,815.86,915Z"/><path class="cls-2" d="M842,927.19l-5.54-9.59-13.56,5.93,7.17,12.25Z"/><path class="cls-2" d="M850.43,956.13l-1.92-10.91-14.77.94,2.55,14Z"/><path class="cls-2" d="M848.48,986.21l1.92-10.9-14.2-4.18-2.38,14Z"/><path class="cls-2" d="M836.35,1013.81l5.54-9.59L830,995.45l-7,12.33Z"/><path class="cls-2" d="M815.52,1035.6l8.48-7.12-8.19-12.32L805,1025.35Z"/><path class="cls-2" d="M788.49,1049l10.41-3.78-3.49-14.39-13.3,4.94Z"/><path class="cls-2" d="M758.53,1052.25H769.6l1.64-14.7-14.19.08Q757.79,1044.95,758.53,1052.25Z"/><path class="cls-2" d="M729.24,1045.11l10.4,3.78,6.58-13.25-13.36-4.78Q731,1038,729.24,1045.11Z"/><path class="cls-2" d="M704.16,1028.37l8.48,7.12,10.72-10.21-10.93-9Q708.31,1022.31,704.16,1028.37Z"/><path class="cls-2" d="M686.32,1004.07l5.54,9.59,13.56-5.93-7.17-12.24Z"/><path class="cls-2" d="M677.87,975.14l1.92,10.9,14.77-.93-2.55-14Z"/><path class="cls-2" d="M679.82,945.05,677.9,956l14.2,4.17,2.37-14Z"/><path class="cls-2" d="M691.94,917.45,686.41,927l11.91,8.78,7-12.33Z"/><path class="cls-2" d="M712.78,895.66l-8.49,7.12,8.2,12.32,10.81-9.18Z"/><path class="cls-2" d="M739.81,882.31,729.4,886.1l3.49,14.38,13.3-4.93Q743,888.94,739.81,882.31Z"/><path class="cls-2" d="M769.77,879H758.7l-1.65,14.71,14.19-.09Z"/><circle class="cls-2" cx="764.15" cy="965.3" r="24.6"/><rect class="cls-2" x="758.65" y="915.5" width="11" height="25.95"/><rect class="cls-2" x="786.19" y="948.42" width="25.95" height="11" transform="translate(-255.66 293.64) rotate(-18)"/><rect class="cls-2" x="780.29" y="982.1" width="11" height="25.95" transform="translate(-434.82 651.92) rotate(-36)"/><rect class="cls-2" x="729.53" y="989.58" width="25.95" height="11" transform="translate(-498.96 1010.89) rotate(-54)"/><rect class="cls-2" x="723.64" y="940.94" width="11" height="25.95" transform="translate(-403.41 1352.59) rotate(-72)"/><rect class="cls-2" x="758.65" y="915.5" width="11" height="25.95"/></g><g id="Layer_27" data-name="Layer 27"><circle class="cls-25" cx="661.49" cy="1117.19" r="76.05"/><path class="cls-4" d="M667.83,1019.85H655.34l-1.86,16.59,16-.1Q668.67,1028.09,667.83,1019.85Z"/><path class="cls-4" d="M700.85,1027.91l-11.74-4.28-7.41,15,15.07,5.39Z"/><path class="cls-4" d="M729.13,1046.78l-9.57-8-12.09,11.52,12.32,10.22Z"/><path class="cls-4" d="M749.24,1074.18,743,1063.36l-15.3,6.69,8.09,13.81Z"/><path class="cls-4" d="M758.77,1106.8l-2.17-12.3-16.66,1,2.88,15.75Z"/><path class="cls-4" d="M756.57,1140.72l2.17-12.3-16-4.71L740,1139.49Z"/><path class="cls-4" d="M742.9,1171.84l6.24-10.82-13.44-9.9L727.78,1165Z"/><path class="cls-4" d="M719.41,1196.41l9.57-8q-4.62-7-9.25-13.9l-12.2,10.36Z"/><path class="cls-4" d="M688.93,1211.46l11.74-4.27L696.74,1191l-15,5.57Z"/><path class="cls-4" d="M655.14,1215.18h12.5q.92-8.29,1.85-16.59l-16,.1Q654.32,1206.93,655.14,1215.18Z"/><path class="cls-4" d="M622.12,1207.12l11.74,4.27,7.42-15-15.08-5.39Z"/><path class="cls-4" d="M593.85,1188.25l9.57,8,12.09-11.52-12.33-10.21Z"/><path class="cls-4" d="M573.73,1160.85l6.25,10.82,15.3-6.69-8.09-13.81Z"/><path class="cls-4" d="M564.2,1128.23l2.17,12.3,16.67-1.06-2.88-15.74Z"/><path class="cls-4" d="M566.41,1094.31l-2.17,12.3,16,4.71,2.68-15.78Z"/><path class="cls-4" d="M580.08,1063.19,573.83,1074l13.44,9.9,7.92-13.91Z"/><path class="cls-4" d="M603.57,1038.62l-9.57,8,9.24,13.9,12.2-10.36Z"/><path class="cls-4" d="M634.05,1023.57l-11.74,4.27,3.93,16.23,15-5.57Z"/><path class="cls-4" d="M667.83,1019.85H655.34l-1.86,16.59,16-.1Q668.67,1028.09,667.83,1019.85Z"/><circle class="cls-4" cx="661.49" cy="1117.19" r="18.19"/></g><g id="Layer_28" data-name="Layer 28"><circle class="cls-26" cx="704.18" cy="832.27" r="41.78"/><path class="cls-4" d="M708,773.84h-7.5l-1.11,10,9.6-.06Z"/><path class="cls-4" d="M727.82,778.68l-7-2.56-4.46,9,9,3.24Q726.6,783.5,727.82,778.68Z"/><path class="cls-4" d="M744.8,790l-5.74-4.82-7.26,6.92,7.4,6.13Z"/><path class="cls-4" d="M756.89,806.47l-3.75-6.5L744,804l4.86,8.29Z"/><path class="cls-4" d="M762.61,826.06l-1.3-7.38-10,.63,1.72,9.45Z"/><path class="cls-4" d="M761.29,846.44l1.3-7.39L753,836.23l-1.62,9.47Z"/><path class="cls-4" d="M753.08,865.13l3.75-6.5-8.07-5.94L744,861Z"/><path class="cls-4" d="M739,879.89l5.74-4.83-5.55-8.34-7.32,6.22Z"/><path class="cls-4" d="M720.67,888.93l7-2.57-2.36-9.74-9,3.34Q718.5,884.45,720.67,888.93Z"/><path class="cls-4" d="M700.37,891.16h7.5l1.11-10-9.6.06Z"/><path class="cls-4" d="M680.54,886.32l7.05,2.57,4.45-9-9-3.23Q681.76,881.5,680.54,886.32Z"/><path class="cls-4" d="M663.56,875l5.74,4.82,7.26-6.91-7.4-6.14Z"/><path class="cls-4" d="M651.47,858.53l3.75,6.5,9.19-4-4.86-8.29Z"/><path class="cls-4" d="M645.75,838.94l1.3,7.38,10-.63-1.72-9.45Z"/><path class="cls-4" d="M647.07,818.56l-1.3,7.39,9.62,2.83L657,819.3Z"/><path class="cls-4" d="M655.28,799.87l-3.75,6.5,8.07,5.94,4.76-8.35Z"/><path class="cls-4" d="M669.39,785.12l-5.74,4.82,5.55,8.34,7.32-6.22Z"/><path class="cls-4" d="M687.7,776.08l-7.05,2.56,2.36,9.74,9-3.34Z"/><path class="cls-4" d="M708,773.84h-7.5l-1.11,10,9.6-.06Z"/><circle class="cls-4" cx="704.18" cy="832.27" r="16.66"/><rect class="cls-4" x="700.46" y="798.55" width="7.45" height="17.58"/><rect class="cls-4" x="719.1" y="820.84" width="17.58" height="7.45" transform="translate(-219.18 265.29) rotate(-18)"/><rect class="cls-4" x="715.11" y="843.65" width="7.45" height="17.58" transform="translate(-363.77 585.32) rotate(-36)"/><rect class="cls-4" x="680.74" y="848.72" width="17.58" height="7.45" transform="translate(-405.41 909.23) rotate(-54)"/><rect class="cls-4" x="676.75" y="815.78" width="7.45" height="17.58" transform="translate(-314.02 1216.93) rotate(-72)"/><rect class="cls-4" x="700.46" y="798.55" width="7.45" height="17.58"/></g><g id="Layer_29" data-name="Layer 29"><circle class="cls-18" cx="804.44" cy="811.14" r="31.97"/><path class="cls-4" d="M807.11,770.21h-5.26l-.78,7,6.74,0Q807.45,773.67,807.11,770.21Z"/><path class="cls-4" d="M821,773.6l-4.93-1.8-3.12,6.29,6.33,2.27Q820.14,777,821,773.6Z"/><path class="cls-4" d="M832.88,781.53l-4-3.37L823.77,783l5.18,4.29Z"/><path class="cls-4" d="M841.34,793.05l-2.63-4.55-6.43,2.82,3.4,5.8Z"/><path class="cls-4" d="M845.34,806.77l-.91-5.17-7,.44,1.21,6.62Z"/><path class="cls-4" d="M844.42,821l.91-5.17-6.74-2-1.12,6.64Z"/><path class="cls-4" d="M838.67,834.12l2.62-4.55-5.65-4.17-3.33,5.85Z"/><path class="cls-4" d="M828.79,844.45l4-3.38-3.89-5.85-5.13,4.36Z"/><path class="cls-4" d="M816,850.77l4.93-1.79-1.65-6.82L813,844.5Z"/><path class="cls-4" d="M801.77,852.34H807l.78-7-6.74,0C801.31,847.71,801.54,850,801.77,852.34Z"/><path class="cls-4" d="M787.89,849l4.93,1.8,3.12-6.29-6.33-2.27Q788.74,845.58,787.89,849Z"/><path class="cls-4" d="M776,841l4,3.37,5.08-4.84-5.18-4.29Z"/><path class="cls-4" d="M767.54,829.5l2.63,4.55,6.43-2.82-3.4-5.81Z"/><path class="cls-4" d="M763.54,815.78l.91,5.17,7-.44-1.21-6.62Z"/><path class="cls-4" d="M764.46,801.52l-.91,5.17,6.74,2,1.12-6.64Z"/><path class="cls-4" d="M770.21,788.43,767.59,793l5.65,4.17,3.33-5.85Z"/><path class="cls-4" d="M780.09,778.1l-4,3.38,3.89,5.85,5.13-4.36Z"/><path class="cls-4" d="M792.9,771.78,788,773.57l1.65,6.82,6.31-2.34Z"/><path class="cls-4" d="M807.11,770.21h-5.26l-.78,7,6.74,0Q807.45,773.67,807.11,770.21Z"/><circle class="cls-4" cx="804.44" cy="811.14" r="7.65"/></g><g id="Layer_30" data-name="Layer 30"><circle class="cls-27" cx="772.47" cy="861.6" r="9.06"/><path class="cls-4" d="M773.29,848.93h-1.62l-.24,2.16h2.08Z"/><path class="cls-4" d="M777.59,850l-1.52-.56-1,2,2,.7Z"/><path class="cls-4" d="M781.28,852.44,780,851.39l-1.57,1.5,1.6,1.33Z"/><path class="cls-4" d="M783.9,856l-.82-1.41-2,.87,1.06,1.8Z"/><path class="cls-4" d="M785.14,860.26l-.28-1.6-2.17.13.37,2.05Z"/><path class="cls-4" d="M784.85,864.68l.28-1.61-2.08-.61-.35,2.06Z"/><path class="cls-4" d="M783.07,868.73l.82-1.41L782.14,866l-1,1.81Z"/><path class="cls-4" d="M780,871.93l1.25-1-1.21-1.81-1.58,1.35Z"/><path class="cls-4" d="M776,873.89l1.53-.56-.51-2.11-2,.73Z"/><path class="cls-4" d="M771.64,874.37h1.63l.24-2.16-2.08,0Z"/><path class="cls-4" d="M767.34,873.33l1.53.55,1-2-2-.7Z"/><path class="cls-4" d="M763.66,870.87l1.24,1,1.58-1.5-1.61-1.33Z"/><path class="cls-4" d="M761,867.3l.81,1.41,2-.87-1.05-1.8Z"/><path class="cls-4" d="M759.8,863.05l.28,1.6,2.17-.14-.38-2Z"/><path class="cls-4" d="M760.08,858.63l-.28,1.6,2.08.61.35-2.05Z"/><path class="cls-4" d="M761.86,854.58l-.81,1.41,1.75,1.28,1-1.81Z"/><path class="cls-4" d="M764.92,851.38l-1.24,1,1.2,1.81,1.59-1.35Z"/><path class="cls-4" d="M768.89,849.42l-1.53.55.52,2.11,2-.72Z"/><path class="cls-4" d="M773.29,848.93h-1.62l-.24,2.16h2.08Z"/><circle class="cls-4" cx="772.47" cy="861.6" r="3.61"/><rect class="cls-4" x="771.66" y="854.29" width="1.62" height="3.81"/><rect class="cls-4" x="775.7" y="859.13" width="3.81" height="1.62" transform="translate(-227.67 282.38) rotate(-18)"/><rect class="cls-4" x="774.84" y="864.07" width="1.62" height="3.81" transform="translate(-360.87 621.3) rotate(-36)"/><rect class="cls-4" x="767.38" y="865.17" width="3.81" height="1.62" transform="translate(-383.48 979.34) rotate(-54)"/><rect class="cls-4" x="766.52" y="858.03" width="1.62" height="3.81" transform="translate(-287.64 1323.97) rotate(-72)"/><rect class="cls-4" x="771.66" y="854.29" width="1.62" height="3.81"/></g><g id="Layer_31" data-name="Layer 31"><circle class="cls-28" cx="818.45" cy="573.69" r="23.77"/><path class="cls-7" d="M820.43,543.27h-3.9l-.58,5.19,5,0Z"/><path class="cls-7" d="M830.75,545.79l-3.67-1.34-2.32,4.68,4.72,1.68Z"/><path class="cls-7" d="M839.59,551.69l-3-2.51-3.78,3.6,3.85,3.19Z"/><path class="cls-7" d="M845.87,560.25l-2-3.38L839.14,559l2.53,4.32Z"/><path class="cls-7" d="M848.85,570.45l-.68-3.85-5.2.33.9,4.92Z"/><path class="cls-7" d="M848.16,581.05l.68-3.85-5-1.47-.84,4.93Z"/><path class="cls-7" d="M843.89,590.77l2-3.38-4.2-3.09-2.47,4.34Z"/><path class="cls-7" d="M836.55,598.45l3-2.51-2.89-4.35-3.81,3.24Z"/><path class="cls-7" d="M827,603.15l3.67-1.33-1.23-5.07-4.69,1.74Z"/><path class="cls-7" d="M816.47,604.32h3.9l.58-5.19-5,0Z"/><path class="cls-7" d="M806.15,601.8l3.66,1.33,2.32-4.67-4.71-1.68Z"/><path class="cls-7" d="M797.31,595.9l3,2.51,3.78-3.6-3.85-3.19Z"/><path class="cls-7" d="M791,587.34l2,3.38,4.78-2.09-2.53-4.32Z"/><path class="cls-7" d="M788,577.14l.68,3.85,5.21-.33-.9-4.93Z"/><path class="cls-7" d="M788.73,566.54l-.67,3.85,5,1.47.84-4.94Z"/><path class="cls-7" d="M793,556.81l-2,3.39,4.21,3.09,2.47-4.35Z"/><path class="cls-7" d="M800.35,549.14l-3,2.51,2.89,4.34,3.81-3.24Z"/><path class="cls-7" d="M809.87,544.43l-3.67,1.34,1.23,5.07,4.69-1.74Z"/><path class="cls-7" d="M820.43,543.27h-3.9l-.58,5.19,5,0Z"/><circle class="cls-7" cx="818.45" cy="573.69" r="5.68"/></g><g id="Layer_32" data-name="Layer 32"><circle class="cls-29" cx="682.71" cy="1226.52" r="10.04"/><path class="cls-4" d="M683.63,1212.48h-1.8l-.27,2.4,2.31,0Z"/><path class="cls-4" d="M688.39,1213.64l-1.69-.61-1.07,2.16,2.18.77Z"/><path class="cls-4" d="M692.48,1216.37l-1.39-1.16-1.74,1.66,1.78,1.47Z"/><path class="cls-4" d="M695.38,1220.32l-.9-1.56-2.21,1,1.17,2Z"/><path class="cls-4" d="M696.75,1225l-.31-1.77-2.4.15.41,2.27Z"/><path class="cls-4" d="M696.44,1229.93l.31-1.78-2.31-.68-.39,2.28Z"/><path class="cls-4" d="M694.46,1234.42l.9-1.56-1.93-1.43-1.15,2Z"/><path class="cls-4" d="M691.07,1238l1.38-1.16-1.33-2-1.76,1.5Z"/><path class="cls-4" d="M686.67,1240.14l1.7-.62-.57-2.34-2.16.8Z"/><path class="cls-4" d="M681.8,1240.68h1.8l.27-2.4-2.31,0Z"/><path class="cls-4" d="M677,1239.51l1.7.62,1.07-2.16-2.18-.78Z"/><path class="cls-4" d="M673,1236.79l1.38,1.16,1.74-1.66-1.77-1.48Z"/><path class="cls-4" d="M670.05,1232.83l.9,1.56,2.21-1-1.17-2Z"/><path class="cls-4" d="M668.67,1228.12l.31,1.78,2.41-.15-.42-2.27Z"/><path class="cls-4" d="M669,1223.23l-.31,1.77,2.31.68.38-2.27Z"/><path class="cls-4" d="M671,1218.74l-.9,1.56,1.94,1.43,1.14-2Z"/><path class="cls-4" d="M674.35,1215.19l-1.38,1.16,1.34,2,1.76-1.5Z"/><path class="cls-4" d="M678.75,1213l-1.69.62.57,2.34,2.16-.81Z"/><path class="cls-4" d="M683.63,1212.48h-1.8l-.27,2.4,2.31,0Z"/><circle class="cls-4" cx="682.71" cy="1226.52" r="4"/><rect class="cls-4" x="681.82" y="1218.42" width="1.79" height="4.22"/><rect class="cls-4" x="686.3" y="1223.78" width="4.22" height="1.79" transform="translate(-344.75 272.67) rotate(-18)"/><rect class="cls-4" x="685.34" y="1229.26" width="1.79" height="4.22" transform="translate(-592.72 638.53) rotate(-36)"/><rect class="cls-4" x="677.08" y="1230.48" width="4.22" height="1.79" transform="translate(-716.23 1057.07) rotate(-54)"/><rect class="cls-4" x="676.12" y="1222.56" width="1.79" height="4.22" transform="translate(-696.93 1490.11) rotate(-72)"/><rect class="cls-4" x="681.82" y="1218.42" width="1.79" height="4.22"/></g><g id="Layer_33" data-name="Layer 33"><circle class="cls-30" cx="653.48" cy="476.15" r="15.55"/><path class="cls-2" d="M654.9,454.4h-2.79l-.41,3.71,3.57,0Z"/><path class="cls-2" d="M662.28,456.2l-2.62-.95L658,458.59l3.37,1.2Z"/><path class="cls-2" d="M668.6,460.42l-2.14-1.8-2.7,2.58,2.76,2.28Z"/><path class="cls-2" d="M673.1,466.54l-1.4-2.41-3.41,1.49,1.8,3.09Z"/><path class="cls-2" d="M675.23,473.84l-.49-2.75-3.72.23.64,3.52Z"/><path class="cls-2" d="M674.74,481.42l.48-2.75-3.58-1.05-.6,3.52Z"/><path class="cls-2" d="M671.68,488.37l1.4-2.41-3-2.22-1.77,3.11Z"/><path class="cls-2" d="M666.43,493.86l2.14-1.79L666.5,489l-2.72,2.32Z"/><path class="cls-2" d="M659.62,497.23l2.62-1-.88-3.62L658,493.89Z"/><path class="cls-2" d="M652.07,498.06h2.79l.41-3.71-3.57,0Z"/><path class="cls-2" d="M644.69,496.26l2.62.95,1.66-3.34-3.37-1.2Z"/><path class="cls-2" d="M638.37,492l2.13,1.8,2.7-2.58L640.45,489Z"/><path class="cls-2" d="M633.87,485.92l1.4,2.42,3.41-1.5-1.8-3.09Z"/><path class="cls-2" d="M631.74,478.63l.48,2.74,3.73-.23-.65-3.52Z"/><path class="cls-2" d="M632.23,471l-.48,2.75,3.58,1,.59-3.52Z"/><path class="cls-2" d="M635.29,464.09l-1.4,2.42,3,2.21,1.77-3.11Z"/><path class="cls-2" d="M640.54,458.6l-2.14,1.79,2.06,3.11,2.73-2.32Z"/><path class="cls-2" d="M647.35,455.23l-2.62,1,.88,3.62,3.35-1.24Z"/><path class="cls-2" d="M654.9,454.4h-2.79l-.41,3.71,3.57,0Z"/><circle class="cls-2" cx="653.48" cy="476.15" r="6.2"/><rect class="cls-2" x="652.1" y="463.6" width="2.77" height="6.54"/><rect class="cls-2" x="659.04" y="471.89" width="6.54" height="2.77" transform="translate(-113.84 227.83) rotate(-18)"/><rect class="cls-2" x="657.55" y="480.38" width="2.77" height="6.54" transform="translate(-158.44 479.68) rotate(-36)"/><rect class="cls-2" x="644.76" y="482.27" width="6.54" height="2.77" transform="translate(-124.15 723.64) rotate(-54)"/><rect class="cls-2" x="643.27" y="470.01" width="2.77" height="6.54" transform="translate(-4.67 940.14) rotate(-72)"/><rect class="cls-2" x="652.1" y="463.6" width="2.77" height="6.54"/></g><g id="Layer_34" data-name="Layer 34"><circle class="cls-15" cx="564.61" cy="472.37" r="15.93"/><path class="cls-4" d="M565.93,452h-2.61l-.39,3.48,3.35,0Z"/><path class="cls-4" d="M572.85,453.67l-2.46-.9-1.55,3.14L572,457Z"/><path class="cls-4" d="M578.77,457.62l-2-1.68-2.53,2.41,2.58,2.14Z"/><path class="cls-4" d="M583,463.36l-1.3-2.27-3.21,1.4,1.7,2.9Z"/><path class="cls-4" d="M585,470.19l-.45-2.57-3.49.22.6,3.29Z"/><path class="cls-4" d="M584.52,477.3l.45-2.58-3.35-1-.56,3.31Z"/><path class="cls-4" d="M581.66,483.81l1.3-2.26-2.81-2.08-1.66,2.92Z"/><path class="cls-4" d="M576.74,489l2-1.68-1.94-2.91-2.55,2.17Z"/><path class="cls-4" d="M570.35,492.11l2.46-.89-.82-3.4L568.85,489Z"/><path class="cls-4" d="M563.28,492.89h2.61l.39-3.47-3.35,0Z"/><path class="cls-4" d="M556.36,491.2l2.46.9,1.55-3.14-3.15-1.12Z"/><path class="cls-4" d="M550.44,487.25l2,1.68,2.54-2.41-2.59-2.14Z"/><path class="cls-4" d="M546.23,481.51l1.31,2.27,3.2-1.4-1.69-2.9Z"/><path class="cls-4" d="M544.23,474.68l.46,2.58,3.49-.22-.61-3.3Z"/><path class="cls-4" d="M544.69,467.58l-.45,2.57,3.35,1,.57-3.31Z"/><path class="cls-4" d="M547.56,461.06l-1.31,2.26,2.81,2.08,1.66-2.92Z"/><path class="cls-4" d="M552.48,455.91l-2,1.68,1.94,2.92,2.55-2.17Z"/><path class="cls-4" d="M558.86,452.76l-2.46.9.82,3.39,3.15-1.16Z"/><path class="cls-4" d="M565.93,452h-2.61l-.39,3.48,3.35,0Z"/><circle class="cls-4" cx="564.61" cy="472.37" r="3.81"/></g><g id="Layer_35" data-name="Layer 35"><circle class="cls-31" cx="611.91" cy="467.99" r="13.73"/><path class="cls-4" d="M613.05,450.41H610.8l-.34,3,2.89,0Z"/><path class="cls-4" d="M619,451.87l-2.12-.78-1.34,2.71,2.73,1Z"/><path class="cls-4" d="M624.12,455.27l-1.73-1.45-2.18,2.08,2.22,1.85Z"/><path class="cls-4" d="M627.75,460.22l-1.13-2-2.76,1.21,1.46,2.49Z"/><path class="cls-4" d="M629.47,466.11l-.39-2.22-3,.19.52,2.85Z"/><path class="cls-4" d="M629.08,472.24l.39-2.22-2.9-.85-.48,2.85Z"/><path class="cls-4" d="M626.61,477.86l1.12-2-2.42-1.78-1.43,2.51Z"/><path class="cls-4" d="M622.36,482.29l1.73-1.45-1.67-2.51-2.2,1.87Z"/><path class="cls-4" d="M616.86,485l2.12-.77-.71-2.93-2.71,1Z"/><path class="cls-4" d="M610.76,485.68H613l.33-3-2.89,0Z"/><path class="cls-4" d="M604.8,484.23l2.12.77,1.34-2.7-2.73-1Z"/><path class="cls-4" d="M599.69,480.82l1.73,1.45,2.18-2.08-2.22-1.84Z"/><path class="cls-4" d="M596.06,475.87l1.13,2,2.76-1.21-1.46-2.5Z"/><path class="cls-4" d="M594.34,470l.39,2.22,3-.19-.52-2.84Z"/><path class="cls-4" d="M594.74,463.86l-.4,2.22,2.9.85.48-2.85Z"/><path class="cls-4" d="M597.2,458.24l-1.12,1.95L598.5,462l1.43-2.51Z"/><path class="cls-4" d="M601.45,453.8l-1.73,1.45,1.67,2.51,2.2-1.87Z"/><path class="cls-4" d="M607,451.08l-2.12.77.71,2.93,2.71-1Z"/><path class="cls-4" d="M613.05,450.41H610.8l-.34,3,2.89,0Z"/><circle class="cls-4" cx="611.91" cy="467.99" r="3.28"/></g><g id="Layer_2" data-name="Layer 2"><circle class="cls-32" cx="211.4" cy="985.18" r="15.55"/><path class="cls-10" d="M212.82,963.43H210l-.42,3.71,3.58,0Z"/><path class="cls-10" d="M220.2,965.23l-2.62-1-1.66,3.34,3.37,1.2Z"/><path class="cls-10" d="M226.52,969.45l-2.14-1.79-2.7,2.57,2.75,2.28Z"/><path class="cls-10" d="M231,975.58l-1.39-2.42-3.42,1.49,1.81,3.09Z"/><path class="cls-10" d="M233.15,982.87l-.49-2.75-3.72.23.64,3.52Z"/><path class="cls-10" d="M232.65,990.45l.49-2.75-3.58-1.05-.6,3.52Z"/><path class="cls-10" d="M229.6,997.41,231,995l-3-2.21-1.77,3.1Z"/><path class="cls-10" d="M224.35,1002.9l2.14-1.8-2.07-3.1-2.73,2.31Z"/><path class="cls-10" d="M217.54,1006.26l2.62-1-.88-3.63-3.35,1.25Z"/><path class="cls-10" d="M210,1007.09h2.79l.42-3.7-3.58,0Z"/><path class="cls-10" d="M202.6,1005.29l2.63,1,1.65-3.35-3.37-1.2Z"/><path class="cls-10" d="M196.28,1001.07l2.14,1.8,2.7-2.57L198.37,998Z"/><path class="cls-10" d="M191.79,995l1.39,2.42,3.42-1.5-1.81-3.08Z"/><path class="cls-10" d="M189.66,987.66l.48,2.75,3.72-.24-.64-3.52Z"/><path class="cls-10" d="M190.15,980.08l-.49,2.74,3.58,1.06.6-3.53Z"/><path class="cls-10" d="M193.2,973.12l-1.39,2.42,3,2.21,1.77-3.11Z"/><path class="cls-10" d="M198.45,967.63l-2.13,1.79,2.06,3.11,2.73-2.32Z"/><path class="cls-10" d="M205.27,964.26l-2.63,1,.88,3.62,3.35-1.24Z"/><path class="cls-10" d="M212.82,963.43H210l-.42,3.71,3.58,0Z"/><circle class="cls-10" cx="211.4" cy="985.18" r="6.2"/><rect class="cls-10" x="210.02" y="972.63" width="2.77" height="6.54"/><rect class="cls-10" x="216.95" y="980.93" width="6.54" height="2.77" transform="translate(-292.77 116.13) rotate(-18)"/><rect class="cls-10" x="215.47" y="989.41" width="2.77" height="6.54" transform="translate(-542.07 317.05) rotate(-36)"/><rect class="cls-10" x="202.68" y="991.3" width="6.54" height="2.77" transform="translate(-718.2 575.81) rotate(-54)"/><rect class="cls-10" x="201.19" y="979.04" width="2.77" height="6.54" transform="translate(-794.26 871.42) rotate(-72)"/><rect class="cls-10" x="210.02" y="972.63" width="2.77" height="6.54"/></g><g id="Layer_3" data-name="Layer 3"><circle class="cls-27" cx="434.1" cy="1174.88" r="9.06"/><path class="cls-4" d="M434.92,1162.21H433.3l-.24,2.16h2.08Z"/><path class="cls-4" d="M439.23,1163.26l-1.53-.55-1,1.94,2,.7Z"/><path class="cls-4" d="M442.91,1165.72l-1.25-1-1.57,1.5,1.6,1.33Z"/><path class="cls-4" d="M445.53,1169.29l-.81-1.41-2,.87,1.06,1.8Z"/><path class="cls-4" d="M446.77,1173.54l-.28-1.6-2.17.13.37,2Z"/><path class="cls-4" d="M446.48,1178l.29-1.61-2.09-.61-.35,2.06Z"/><path class="cls-4" d="M444.7,1182l.82-1.41-1.75-1.29-1,1.81Z"/><path class="cls-4" d="M441.64,1185.21l1.25-1-1.2-1.81-1.59,1.35Z"/><path class="cls-4" d="M437.67,1187.17l1.53-.56-.51-2.11-1.95.73Z"/><path class="cls-4" d="M433.27,1187.66h1.63l.24-2.16h-2.08Z"/><path class="cls-4" d="M429,1186.61l1.53.55,1-1.94-2-.71Z"/><path class="cls-4" d="M425.29,1184.15l1.24,1,1.58-1.5-1.61-1.33Z"/><path class="cls-4" d="M422.67,1180.58l.81,1.41,2-.87-1.05-1.8Z"/><path class="cls-4" d="M421.43,1176.33l.28,1.6,2.17-.14-.38-2Z"/><path class="cls-4" d="M421.71,1171.91l-.28,1.6,2.09.62.35-2.06Z"/><path class="cls-4" d="M423.49,1167.86l-.81,1.41,1.75,1.29,1-1.82Z"/><path class="cls-4" d="M426.55,1164.66l-1.24,1,1.2,1.81,1.59-1.35Z"/><path class="cls-4" d="M430.52,1162.7l-1.53.55.52,2.12,1.95-.73Z"/><path class="cls-4" d="M434.92,1162.21H433.3l-.24,2.16h2.08Z"/><circle class="cls-4" cx="434.1" cy="1174.88" r="3.61"/><rect class="cls-4" x="433.29" y="1167.57" width="1.62" height="3.81"/><rect class="cls-4" x="437.33" y="1172.41" width="3.81" height="1.62" transform="translate(-341.04 193.15) rotate(-18)"/><rect class="cls-4" x="436.47" y="1177.35" width="1.62" height="3.81" transform="translate(-609.64 482.24) rotate(-36)"/><rect class="cls-4" x="429.01" y="1178.45" width="3.81" height="1.62" transform="translate(-776.41 834.73) rotate(-54)"/><rect class="cls-4" x="428.15" y="1171.31" width="1.62" height="3.81" transform="translate(-819.39 1218.63) rotate(-72)"/><rect class="cls-4" x="433.29" y="1167.57" width="1.62" height="3.81"/></g><g id="Layer_4" data-name="Layer 4"><circle class="cls-33" cx="442.09" cy="1087.78" r="15.55"/><path class="cls-4" d="M443.5,1066h-2.79l-.41,3.7,3.57,0Z"/><path class="cls-4" d="M450.88,1067.84l-2.62-1-1.66,3.35,3.37,1.2Z"/><path class="cls-4" d="M457.2,1072.06l-2.14-1.8-2.69,2.58,2.75,2.28Z"/><path class="cls-4" d="M461.7,1078.18l-1.4-2.42-3.41,1.5,1.8,3.08Z"/><path class="cls-4" d="M463.83,1085.47l-.49-2.75-3.72.24.65,3.52Z"/><path class="cls-4" d="M463.34,1093.05l.48-2.74-3.58-1.06-.6,3.53Z"/><path class="cls-4" d="M460.28,1100l1.4-2.42-3-2.21-1.76,3.11Z"/><path class="cls-4" d="M455,1105.5l2.14-1.79-2.07-3.11-2.72,2.32Z"/><path class="cls-4" d="M448.22,1108.87l2.62-1-.88-3.62-3.35,1.24Z"/><path class="cls-4" d="M440.67,1109.7h2.79l.41-3.71-3.57,0Z"/><path class="cls-4" d="M433.29,1107.9l2.62.95,1.66-3.34-3.37-1.2Z"/><path class="cls-4" d="M427,1103.68l2.14,1.79,2.7-2.57-2.76-2.28Z"/><path class="cls-4" d="M422.47,1097.56l1.4,2.41,3.41-1.49-1.8-3.09Z"/><path class="cls-4" d="M420.34,1090.26l.49,2.75,3.72-.23-.64-3.52Z"/><path class="cls-4" d="M420.83,1082.68l-.48,2.75,3.58,1,.6-3.52Z"/><path class="cls-4" d="M423.89,1075.73l-1.4,2.41,3,2.21,1.76-3.1Z"/><path class="cls-4" d="M429.14,1070.23,427,1072l2.07,3.1,2.72-2.31Z"/><path class="cls-4" d="M436,1066.87l-2.62,1,.88,3.63,3.35-1.24Z"/><path class="cls-4" d="M443.5,1066h-2.79l-.41,3.7,3.57,0Z"/><circle class="cls-4" cx="442.09" cy="1087.78" r="6.2"/><rect class="cls-4" x="440.7" y="1075.23" width="2.77" height="6.54"/><rect class="cls-4" x="447.64" y="1083.53" width="6.54" height="2.77" transform="translate(-313.19 192.44) rotate(-18)"/><rect class="cls-4" x="446.15" y="1092.02" width="2.77" height="6.54" transform="translate(-558.32 472.24) rotate(-36)"/><rect class="cls-4" x="433.36" y="1093.9" width="6.54" height="2.77" transform="translate(-706.12 804.74) rotate(-54)"/><rect class="cls-4" x="431.88" y="1081.65" width="2.77" height="6.54" transform="translate(-732.44 1161.71) rotate(-72)"/><rect class="cls-4" x="440.7" y="1075.23" width="2.77" height="6.54"/></g><g id="Layer_5" data-name="Layer 5"><circle class="cls-33" cx="416.02" cy="1133.15" r="15.55"/><path class="cls-4" d="M417.44,1111.4h-2.79l-.41,3.71,3.57,0Z"/><path class="cls-4" d="M424.82,1113.2l-2.62-1-1.66,3.34,3.37,1.2Z"/><path class="cls-4" d="M431.14,1117.42l-2.14-1.79-2.7,2.57,2.76,2.28Z"/><path class="cls-4" d="M435.64,1123.55l-1.4-2.42-3.41,1.49,1.8,3.09Z"/><path class="cls-4" d="M437.77,1130.84l-.49-2.75-3.72.24.64,3.51Z"/><path class="cls-4" d="M437.28,1138.42l.48-2.75-3.58-1.05-.6,3.52Z"/><path class="cls-4" d="M434.22,1145.38l1.4-2.42-3-2.21-1.77,3.1Z"/><path class="cls-4" d="M429,1150.87l2.14-1.8L429,1146l-2.72,2.31Z"/><path class="cls-4" d="M422.16,1154.23l2.62-1-.88-3.63-3.35,1.25Z"/><path class="cls-4" d="M414.61,1155.06h2.79l.41-3.7-3.57,0Z"/><path class="cls-4" d="M407.23,1153.26l2.62,1,1.66-3.35-3.37-1.2Z"/><path class="cls-4" d="M400.91,1149l2.13,1.8,2.7-2.57L403,1146Z"/><path class="cls-4" d="M396.41,1142.92l1.4,2.42,3.41-1.5-1.8-3.08Z"/><path class="cls-4" d="M394.28,1135.63l.48,2.75,3.73-.24-.65-3.52Z"/><path class="cls-4" d="M394.77,1128.05l-.48,2.74,3.58,1.06.59-3.53Z"/><path class="cls-4" d="M397.83,1121.09l-1.4,2.42,3,2.21,1.77-3.11Z"/><path class="cls-4" d="M403.08,1115.6l-2.14,1.79,2.06,3.11,2.73-2.32Z"/><path class="cls-4" d="M409.89,1112.23l-2.62,1,.88,3.62,3.35-1.24Z"/><path class="cls-4" d="M417.44,1111.4h-2.79l-.41,3.71,3.57,0Z"/><circle class="cls-4" cx="416.02" cy="1133.15" r="6.2"/><rect class="cls-4" x="414.64" y="1120.6" width="2.77" height="6.54"/><rect class="cls-4" x="421.58" y="1128.9" width="6.54" height="2.77" transform="translate(-328.48 186.61) rotate(-18)"/><rect class="cls-4" x="420.09" y="1137.38" width="2.77" height="6.54" transform="translate(-589.96 465.58) rotate(-36)"/><rect class="cls-4" x="407.3" y="1139.27" width="6.54" height="2.77" transform="translate(-753.57 802.35) rotate(-54)"/><rect class="cls-4" x="405.81" y="1127.01" width="2.77" height="6.54" transform="translate(-793.59 1168.27) rotate(-72)"/><rect class="cls-4" x="414.64" y="1120.6" width="2.77" height="6.54"/></g><g id="Layer_6" data-name="Layer 6"><circle class="cls-27" cx="261.63" cy="959.35" r="9.06"/><path class="cls-4" d="M262.46,946.68h-1.63l-.24,2.16h2.08Z"/><path class="cls-4" d="M266.76,947.73l-1.53-.56-1,2,2,.7Z"/><path class="cls-4" d="M270.44,950.19l-1.25-1.05-1.57,1.5,1.6,1.33Z"/><path class="cls-4" d="M273.06,953.75l-.81-1.4-2,.87,1.05,1.79Z"/><path class="cls-4" d="M274.3,958l-.28-1.6-2.17.14.37,2.05Z"/><path class="cls-4" d="M274,962.42l.29-1.6-2.09-.61-.35,2Z"/><path class="cls-4" d="M272.23,966.48l.82-1.41-1.75-1.29-1,1.81Z"/><path class="cls-4" d="M269.17,969.68l1.25-1-1.2-1.81-1.59,1.35Z"/><path class="cls-4" d="M265.2,971.64l1.53-.56-.51-2.11-2,.72Z"/><path class="cls-4" d="M260.8,972.12h1.63l.24-2.16h-2.08Z"/><path class="cls-4" d="M256.5,971.07l1.53.56,1-2-2-.7Z"/><path class="cls-4" d="M252.82,968.61l1.24,1,1.58-1.5L254,966.83Z"/><path class="cls-4" d="M250.2,965.05l.81,1.4,2-.87-1.05-1.8Z"/><path class="cls-4" d="M249,960.8l.28,1.6,2.17-.14-.38-2Z"/><path class="cls-4" d="M249.24,956.38,249,958l2.09.61.35-2.05Z"/><path class="cls-4" d="M251,952.32l-.81,1.41L252,955l1-1.81Z"/><path class="cls-4" d="M254.08,949.12l-1.24,1L254,952l1.59-1.35Z"/><path class="cls-4" d="M258.05,947.16l-1.52.56.51,2.11,1.95-.72Z"/><path class="cls-4" d="M262.46,946.68h-1.63l-.24,2.16h2.08Z"/><circle class="cls-4" cx="261.63" cy="959.35" r="3.61"/><rect class="cls-4" x="260.82" y="952.04" width="1.62" height="3.81"/><rect class="cls-4" x="264.87" y="956.87" width="3.81" height="1.62" transform="translate(-282.88 129.31) rotate(-18)"/><rect class="cls-4" x="264" y="961.82" width="1.62" height="3.81" transform="translate(-515.89 339.71) rotate(-36)"/><rect class="cls-4" x="256.55" y="962.92" width="3.81" height="1.62" transform="translate(-673.13 606.35) rotate(-54)"/><rect class="cls-4" x="255.68" y="955.77" width="1.62" height="3.81" transform="translate(-733.58 905.67) rotate(-72)"/><rect class="cls-4" x="260.82" y="952.04" width="1.62" height="3.81"/></g><g id="Layer_7" data-name="Layer 7"><circle class="cls-34" cx="513.6" cy="1259.15" r="24.3"/><path class="cls-4" d="M515.63,1228h-4l-.59,5.31,5.11,0Z"/><path class="cls-4" d="M526.18,1230.62l-3.75-1.37-2.37,4.78,4.82,1.72Z"/><path class="cls-4" d="M535.21,1236.65l-3.06-2.57-3.86,3.68,3.94,3.27Z"/><path class="cls-4" d="M541.64,1245.4l-2-3.45-4.88,2.13,2.58,4.42Z"/><path class="cls-4" d="M544.68,1255.83l-.69-3.93-5.32.33.92,5Z"/><path class="cls-4" d="M544,1266.66l.69-3.93-5.11-1.5-.86,5Z"/><path class="cls-4" d="M539.61,1276.61l2-3.46-4.3-3.16-2.53,4.44Z"/><path class="cls-4" d="M532.11,1284.45l3-2.56-2.95-4.44-3.9,3.31Z"/><path class="cls-4" d="M522.37,1289.26l3.75-1.36-1.26-5.19-4.79,1.78Z"/><path class="cls-4" d="M511.58,1290.45h4l.59-5.3-5.11,0Z"/><path class="cls-4" d="M501,1287.88l3.75,1.36,2.37-4.78-4.82-1.72Z"/><path class="cls-4" d="M492,1281.85l3.06,2.56,3.86-3.68-3.94-3.26Z"/><path class="cls-4" d="M485.57,1273.09l2,3.46,4.89-2.14-2.58-4.41Z"/><path class="cls-4" d="M482.52,1262.67l.69,3.93,5.33-.34-.92-5Z"/><path class="cls-4" d="M483.23,1251.83l-.7,3.93,5.12,1.51.86-5Z"/><path class="cls-4" d="M487.59,1241.89l-2,3.46,4.29,3.16,2.53-4.44Z"/><path class="cls-4" d="M495.1,1234l-3.06,2.57,2.95,4.44,3.9-3.31Z"/><path class="cls-4" d="M504.84,1229.23l-3.76,1.37,1.26,5.18,4.8-1.78Z"/><path class="cls-4" d="M515.63,1228h-4l-.59,5.31,5.11,0Z"/><circle class="cls-4" cx="513.6" cy="1259.15" r="5.81"/></g><g id="Layer_8" data-name="Layer 8"><circle class="cls-35" cx="451.64" cy="1232.52" r="25.07"/><path class="cls-2" d="M453.92,1197.46h-4.5l-.66,6,5.76,0Z"/><path class="cls-2" d="M465.82,1200.37l-4.22-1.54-2.68,5.38,5.43,1.94Z"/><path class="cls-2" d="M476,1207.16l-3.44-2.89-4.36,4.15,4.44,3.68Z"/><path class="cls-2" d="M483.26,1217l-2.25-3.9-5.51,2.41,2.92,5Z"/><path class="cls-2" d="M486.7,1228.8l-.78-4.43-6,.38,1,5.67Z"/><path class="cls-2" d="M485.91,1241l.78-4.43-5.77-1.69-1,5.68Z"/><path class="cls-2" d="M481,1252.24l2.25-3.9-4.84-3.57-2.86,5Z"/><path class="cls-2" d="M472.51,1261.09l3.45-2.89-3.33-5-4.39,3.74Z"/><path class="cls-2" d="M461.53,1266.52l4.23-1.54-1.42-5.85-5.4,2C459.8,1262.93,460.67,1264.72,461.53,1266.52Z"/><path class="cls-2" d="M449.35,1267.86h4.5l.67-6-5.76,0Q449,1264.89,449.35,1267.86Z"/><path class="cls-2" d="M437.45,1265l4.23,1.54,2.67-5.38-5.43-1.94Z"/><path class="cls-2" d="M427.26,1258.15l3.45,2.9,4.35-4.15-4.44-3.68Z"/><path class="cls-2" d="M420,1248.28l2.25,3.9,5.51-2.41-2.91-5Z"/><path class="cls-2" d="M416.58,1236.52l.78,4.43,6-.38-1-5.67Z"/><path class="cls-2" d="M417.37,1224.3l-.78,4.43,5.77,1.69,1-5.68Z"/><path class="cls-2" d="M422.3,1213.08l-2.25,3.9,4.84,3.57,2.85-5Z"/><path class="cls-2" d="M430.76,1204.23l-3.44,2.89,3.33,5,4.39-3.74Z"/><path class="cls-2" d="M441.75,1198.8l-4.23,1.54,1.41,5.85,5.41-2C443.48,1202.39,442.61,1200.6,441.75,1198.8Z"/><path class="cls-2" d="M453.92,1197.46h-4.5l-.66,6,5.76,0Z"/><circle class="cls-2" cx="451.64" cy="1232.52" r="10"/><rect class="cls-2" x="449.4" y="1212.29" width="4.47" height="10.55"/><rect class="cls-2" x="460.59" y="1225.67" width="10.55" height="4.47" transform="translate(-356.64 204.06) rotate(-18)"/><rect class="cls-2" x="458.2" y="1239.35" width="4.47" height="10.55" transform="translate(-643.64 508.34) rotate(-36)"/><rect class="cls-2" x="437.57" y="1242.39" width="10.55" height="4.47" transform="translate(-824.38 871.32) rotate(-54)"/><rect class="cls-2" x="435.18" y="1222.63" width="4.47" height="10.55" transform="translate(-865.56 1264.46) rotate(-72)"/><rect class="cls-2" x="449.4" y="1212.29" width="4.47" height="10.55"/></g><g id="Layer_9" data-name="Layer 9"><circle class="cls-36" cx="377.55" cy="1196.17" r="36.65"/><path class="cls-4" d="M380.61,1149.26h-6l-.89,8,7.71,0C381.14,1154.56,380.88,1151.91,380.61,1149.26Z"/><path class="cls-4" d="M396.52,1153.15l-5.65-2.06-3.58,7.2,7.27,2.6C395.21,1158.31,395.87,1155.73,396.52,1153.15Z"/><path class="cls-4" d="M410.15,1162.24l-4.61-3.87-5.83,5.55,5.94,4.92Z"/><path class="cls-4" d="M419.84,1175.44l-3-5.21-7.37,3.22,3.9,6.66Z"/><path class="cls-4" d="M424.43,1191.17l-1-5.93-8,.5,1.38,7.59Z"/><path class="cls-4" d="M423.37,1207.51l1.05-5.93-7.72-2.27-1.29,7.61Z"/><path class="cls-4" d="M416.78,1222.51l3-5.22-6.47-4.77-3.82,6.71Z"/><path class="cls-4" d="M405.46,1234.35l4.62-3.87-4.46-6.7-5.88,5Z"/><path class="cls-4" d="M390.78,1241.6l5.65-2.06-1.89-7.82-7.23,2.68Q389,1238,390.78,1241.6Z"/><path class="cls-4" d="M374.5,1243.39h6l.89-8-7.71,0Q374.09,1239.42,374.5,1243.39Z"/><path class="cls-4" d="M358.58,1239.51l5.66,2.06,3.57-7.21-7.26-2.59C359.89,1234.35,359.24,1236.93,358.58,1239.51Z"/><path class="cls-4" d="M345,1230.42l4.61,3.87,5.82-5.55-5.94-4.93Z"/><path class="cls-4" d="M335.26,1217.21l3,5.22,7.38-3.23-3.9-6.65Z"/><path class="cls-4" d="M330.67,1201.49l1.05,5.93,8-.51-1.39-7.59Z"/><path class="cls-4" d="M331.73,1185.14l-1,5.93,7.72,2.27,1.29-7.6Z"/><path class="cls-4" d="M338.32,1170.15l-3,5.21,6.48,4.77,3.82-6.7Z"/><path class="cls-4" d="M349.64,1158.31l-4.61,3.87,4.45,6.7,5.88-5Z"/><path class="cls-4" d="M364.33,1151.05l-5.66,2.06,1.9,7.82,7.23-2.68Z"/><path class="cls-4" d="M380.61,1149.26h-6l-.89,8,7.71,0C381.14,1154.56,380.88,1151.91,380.61,1149.26Z"/><circle class="cls-4" cx="377.55" cy="1196.17" r="8.77"/></g><g id="Layer_10" data-name="Layer 10"><circle class="cls-37" cx="714.24" cy="1208.69" r="9.06"/><path class="cls-10" d="M715.07,1196h-1.63l-.24,2.16,2.08,0Z"/><path class="cls-10" d="M719.37,1197.07l-1.53-.56-1,2,2,.7Z"/><path class="cls-10" d="M723.05,1199.52l-1.24-1-1.58,1.5,1.61,1.33Z"/><path class="cls-10" d="M725.67,1203.09l-.81-1.41-2,.88,1,1.79Z"/><path class="cls-10" d="M726.91,1207.34l-.28-1.6-2.17.14.38,2Z"/><path class="cls-10" d="M726.63,1211.76l.28-1.6-2.09-.61-.35,2Z"/><path class="cls-10" d="M724.85,1215.81l.81-1.4-1.75-1.29-1,1.81Z"/><path class="cls-10" d="M721.79,1219l1.24-1-1.2-1.81-1.59,1.35Z"/><path class="cls-10" d="M717.82,1221l1.52-.56-.51-2.11-2,.72Z"/><path class="cls-10" d="M713.42,1221.46H715l.24-2.16H713.2Z"/><path class="cls-10" d="M709.11,1220.41l1.53.56,1-2-2-.7Z"/><path class="cls-10" d="M705.43,1218l1.25,1,1.57-1.5-1.6-1.33Z"/><path class="cls-10" d="M702.81,1214.38l.81,1.41,2-.87-1.06-1.8Z"/><path class="cls-10" d="M701.57,1210.13l.28,1.61,2.17-.14-.37-2Z"/><path class="cls-10" d="M701.86,1205.72l-.29,1.6,2.09.61.35-2Z"/><path class="cls-10" d="M703.64,1201.66l-.82,1.41,1.75,1.29,1-1.81Z"/><path class="cls-10" d="M706.7,1198.46l-1.25,1,1.2,1.81,1.59-1.35Z"/><path class="cls-10" d="M710.67,1196.5l-1.53.56.51,2.11,2-.72Z"/><path class="cls-10" d="M715.07,1196h-1.63l-.24,2.16,2.08,0Z"/><circle class="cls-10" cx="714.24" cy="1208.69" r="3.61"/><rect class="cls-10" x="713.43" y="1201.38" width="1.62" height="3.81"/><rect class="cls-10" x="717.48" y="1206.21" width="3.81" height="1.62" transform="translate(-337.78 281.38) rotate(-18)"/><rect class="cls-10" x="716.61" y="1211.16" width="1.62" height="3.81" transform="translate(-576.01 653.36) rotate(-36)"/><rect class="cls-10" x="709.16" y="1212.26" width="3.81" height="1.62" transform="translate(-688.28 1075.3) rotate(-54)"/><rect class="cls-10" x="708.29" y="1205.11" width="1.62" height="3.81" transform="translate(-657.97 1508.42) rotate(-72)"/><rect class="cls-10" x="713.43" y="1201.38" width="1.62" height="3.81"/></g><g id="Layer_11" data-name="Layer 11"><circle class="cls-6" cx="644.22" cy="1234.72" r="15.55"/><path class="cls-7" d="M645.64,1213h-2.79l-.42,3.7,3.58,0Z"/><path class="cls-7" d="M653,1214.78l-2.62-1-1.66,3.34,3.37,1.21Z"/><path class="cls-7" d="M659.34,1219l-2.14-1.79-2.7,2.57,2.75,2.29Z"/><path class="cls-7" d="M663.84,1225.12l-1.4-2.42-3.42,1.5,1.81,3.08Z"/><path class="cls-7" d="M666,1232.41l-.49-2.75-3.72.24.64,3.52Z"/><path class="cls-7" d="M665.47,1240l.49-2.75-3.58-1-.6,3.53Z"/><path class="cls-7" d="M662.42,1247l1.39-2.42-3-2.21-1.77,3.11Z"/><path class="cls-7" d="M657.17,1252.44l2.14-1.79-2.07-3.11-2.72,2.32Z"/><path class="cls-7" d="M650.36,1255.8l2.62-1-.88-3.62-3.35,1.24Z"/><path class="cls-7" d="M642.8,1256.64h2.79l.42-3.71-3.58,0Z"/><path class="cls-7" d="M635.42,1254.84l2.63,1,1.65-3.34-3.36-1.2Z"/><path class="cls-7" d="M629.1,1250.62l2.14,1.79,2.7-2.57-2.75-2.28Z"/><path class="cls-7" d="M624.61,1244.49l1.39,2.42,3.42-1.49-1.81-3.09Z"/><path class="cls-7" d="M622.48,1237.2,623,1240l3.72-.24-.64-3.51Z"/><path class="cls-7" d="M623,1229.62l-.49,2.75,3.58,1.05.6-3.52Z"/><path class="cls-7" d="M626,1222.66l-1.39,2.42,3,2.21,1.77-3.1Z"/><path class="cls-7" d="M631.27,1217.17l-2.13,1.8,2.06,3.1,2.73-2.31Z"/><path class="cls-7" d="M638.09,1213.81l-2.63,1,.88,3.63,3.36-1.25Z"/><path class="cls-7" d="M645.64,1213h-2.79l-.42,3.7,3.58,0Z"/><circle class="cls-7" cx="644.22" cy="1234.72" r="6.2"/><rect class="cls-7" x="642.84" y="1222.17" width="2.77" height="6.54"/><rect class="cls-7" x="649.77" y="1230.47" width="6.54" height="2.77" transform="translate(-348.7 262.09) rotate(-18)"/><rect class="cls-7" x="648.29" y="1238.96" width="2.77" height="6.54" transform="translate(-606.09 619.11) rotate(-36)"/><rect class="cls-7" x="635.5" y="1240.84" width="6.54" height="2.77" transform="translate(-741.67 1028.84) rotate(-54)"/><rect class="cls-7" x="634.01" y="1228.58" width="2.77" height="6.54" transform="translate(-732.51 1455.49) rotate(-72)"/><rect class="cls-7" x="642.84" y="1222.17" width="2.77" height="6.54"/></g><g id="Layer_12" data-name="Layer 12"><circle class="cls-38" cx="776.55" cy="1137.82" r="12.23"/><path class="cls-4" d="M777.66,1120.71h-2.19l-.33,2.91H778Z"/><path class="cls-4" d="M783.47,1122.13l-2.06-.76L780.1,1124l2.65,1Z"/><path class="cls-4" d="M788.44,1125.44l-1.68-1.41-2.12,2,2.16,1.79Z"/><path class="cls-4" d="M792,1130.26l-1.1-1.9-2.69,1.18,1.43,2.43Z"/><path class="cls-4" d="M793.66,1136l-.38-2.16-2.93.18.5,2.77Z"/><path class="cls-4" d="M793.27,1142l.38-2.17-2.81-.82-.48,2.77Z"/><path class="cls-4" d="M790.87,1147.44l1.09-1.9-2.36-1.74-1.39,2.44Z"/><path class="cls-4" d="M786.73,1151.76l1.69-1.41-1.63-2.44-2.14,1.82Z"/><path class="cls-4" d="M781.37,1154.41l2.07-.75-.69-2.85-2.64,1Z"/><path class="cls-4" d="M775.43,1155.06h2.2l.32-2.91h-2.81Z"/><path class="cls-4" d="M769.62,1153.65l2.07.75,1.3-2.63-2.65-1Z"/><path class="cls-4" d="M764.65,1150.33l1.68,1.41,2.13-2-2.17-1.79Z"/><path class="cls-4" d="M761.11,1145.51l1.1,1.9,2.69-1.18-1.42-2.42Z"/><path class="cls-4" d="M759.44,1139.77l.38,2.16,2.93-.18-.51-2.77Z"/><path class="cls-4" d="M759.82,1133.8l-.38,2.17,2.82.82.47-2.77Z"/><path class="cls-4" d="M762.23,1128.33l-1.1,1.9,2.36,1.74,1.4-2.44Z"/><path class="cls-4" d="M766.36,1124l-1.68,1.41,1.62,2.45,2.15-1.83Z"/><path class="cls-4" d="M771.72,1121.36l-2.06.75.69,2.86,2.64-1Z"/><path class="cls-4" d="M777.66,1120.71h-2.19l-.33,2.91H778Z"/><circle class="cls-4" cx="776.55" cy="1137.82" r="4.88"/><rect class="cls-4" x="775.46" y="1127.94" width="2.18" height="5.15"/><rect class="cls-4" x="780.92" y="1134.47" width="5.15" height="2.18" transform="translate(-312.56 297.69) rotate(-18)"/><rect class="cls-4" x="779.75" y="1141.15" width="2.18" height="5.15" transform="translate(-523.14 677.4) rotate(-36)"/><rect class="cls-4" x="769.68" y="1142.63" width="5.15" height="2.18" transform="matrix(0.59, -0.81, 0.81, 0.59, -606.96, 1096.23)"/><rect class="cls-4" x="768.51" y="1132.99" width="2.18" height="5.15" transform="translate(-548.2 1516.59) rotate(-72)"/><rect class="cls-4" x="775.46" y="1127.94" width="2.18" height="5.15"/></g><g id="Layer_13" data-name="Layer 13"><circle class="cls-39" cx="791" cy="1084.68" r="27.15"/><path class="cls-7" d="M793.27,1049.93h-4.46l-.67,5.93,5.72,0Q793.56,1052.88,793.27,1049.93Z"/><path class="cls-7" d="M805.05,1052.81l-4.19-1.53-2.65,5.34,5.39,1.93C804.08,1056.63,804.57,1054.72,805.05,1052.81Z"/><path class="cls-7" d="M815.15,1059.55l-3.42-2.87-4.31,4.11,4.4,3.65Z"/><path class="cls-7" d="M822.33,1069.33l-2.23-3.86-5.46,2.38,2.88,4.93Z"/><path class="cls-7" d="M825.73,1081l-.77-4.4-6,.38,1,5.62Z"/><path class="cls-7" d="M824.94,1093.08l.78-4.39L820,1087l-1,5.64Z"/><path class="cls-7" d="M820.06,1104.19l2.23-3.86-4.8-3.53-2.82,5Z"/><path class="cls-7" d="M811.68,1113l3.41-2.86-3.3-5-4.35,3.7Q809.56,1110.9,811.68,1113Z"/><path class="cls-7" d="M800.8,1118.34l4.19-1.53-1.41-5.79-5.35,2Z"/><path class="cls-7" d="M788.74,1119.67h4.46l.66-5.93-5.72,0Z"/><path class="cls-7" d="M777,1116.79l4.19,1.52,2.65-5.34-5.39-1.92Z"/><path class="cls-7" d="M766.85,1110.05l3.42,2.87,4.32-4.11-4.4-3.65Z"/><path class="cls-7" d="M759.67,1100.27l2.23,3.86,5.46-2.38-2.88-4.94Z"/><path class="cls-7" d="M756.27,1088.62l.77,4.4,6-.38-1-5.62Z"/><path class="cls-7" d="M757.06,1076.51l-.78,4.4,5.72,1.68,1-5.64Z"/><path class="cls-7" d="M761.94,1065.4l-2.23,3.87,4.8,3.53,2.82-5Z"/><path class="cls-7" d="M770.32,1056.63l-3.41,2.87,3.3,5,4.35-3.7Z"/><path class="cls-7" d="M781.2,1051.26l-4.19,1.53,1.41,5.79,5.35-2Z"/><path class="cls-7" d="M793.27,1049.93h-4.46l-.67,5.93,5.72,0Q793.56,1052.88,793.27,1049.93Z"/><circle class="cls-7" cx="791" cy="1084.68" r="6.49"/></g><g id="Layer_14" data-name="Layer 14"><circle class="cls-40" cx="658.19" cy="950.41" r="12.23"/><path class="cls-7" d="M659.31,933.3h-2.2l-.33,2.91h2.82Z"/><path class="cls-7" d="M665.11,934.71l-2.06-.75-1.3,2.63,2.65.95Z"/><path class="cls-7" d="M670.09,938l-1.69-1.41-2.12,2,2.17,1.8Z"/><path class="cls-7" d="M673.62,942.85l-1.09-1.9-2.69,1.17,1.42,2.43Z"/><path class="cls-7" d="M675.3,948.59l-.38-2.16-2.93.18.51,2.77Z"/><path class="cls-7" d="M674.91,954.55l.39-2.16-2.82-.83-.47,2.78Z"/><path class="cls-7" d="M672.51,960l1.1-1.9-2.37-1.74-1.39,2.44Z"/><path class="cls-7" d="M668.38,964.35l1.68-1.41-1.62-2.45-2.15,1.82Z"/><path class="cls-7" d="M663,967l2.06-.76-.69-2.85-2.64,1Z"/><path class="cls-7" d="M657.08,967.65h2.19l.33-2.92-2.82,0Z"/><path class="cls-7" d="M651.27,966.23l2.06.75,1.31-2.63-2.65-.94Z"/><path class="cls-7" d="M646.3,962.91l1.68,1.42,2.12-2-2.16-1.79Z"/><path class="cls-7" d="M642.76,958.1l1.1,1.9,2.68-1.18-1.42-2.43Z"/><path class="cls-7" d="M641.08,952.36l.38,2.16,2.93-.19-.5-2.76Z"/><path class="cls-7" d="M641.47,946.39l-.38,2.16,2.81.83.47-2.77Z"/><path class="cls-7" d="M643.87,940.92l-1.09,1.9,2.36,1.74,1.39-2.44Z"/><path class="cls-7" d="M648,936.6,646.32,938l1.63,2.44,2.14-1.82Z"/><path class="cls-7" d="M653.36,934l-2.06.75.69,2.85,2.64-1Z"/><path class="cls-7" d="M659.31,933.3h-2.2l-.33,2.91h2.82Z"/><circle class="cls-7" cx="658.19" cy="950.41" r="4.88"/><rect class="cls-7" x="657.1" y="940.53" width="2.18" height="5.15"/><rect class="cls-7" x="662.56" y="947.06" width="5.15" height="2.18" transform="translate(-260.44 251.94) rotate(-18)"/><rect class="cls-7" x="661.39" y="953.74" width="2.18" height="5.15" transform="translate(-435.58 572.04) rotate(-36)"/><rect class="cls-7" x="651.33" y="955.22" width="5.15" height="2.18" transform="translate(-504.13 923.22) rotate(-54)"/><rect class="cls-7" x="650.16" y="945.58" width="2.18" height="5.15" transform="translate(-451.74 1274.53) rotate(-72)"/><rect class="cls-7" x="657.1" y="940.53" width="2.18" height="5.15"/></g><g id="Layer_15" data-name="Layer 15"><circle class="cls-33" cx="655.4" cy="991.36" r="15.55"/><path class="cls-4" d="M656.82,969.61H654l-.42,3.71,3.58,0Z"/><path class="cls-4" d="M664.2,971.41l-2.63-.95-1.65,3.34,3.36,1.2Z"/><path class="cls-4" d="M670.52,975.63l-2.14-1.79-2.7,2.57,2.75,2.28Z"/><path class="cls-4" d="M675,981.75l-1.39-2.41-3.42,1.49,1.81,3.09Z"/><path class="cls-4" d="M677.14,989.05l-.48-2.75-3.72.23.64,3.52Z"/><path class="cls-4" d="M676.65,996.63l.49-2.75-3.58-1-.6,3.52Z"/><path class="cls-4" d="M673.6,1003.58l1.39-2.41L672,999l-1.77,3.1Z"/><path class="cls-4" d="M668.35,1009.08l2.13-1.8-2.06-3.1-2.73,2.31Z"/><path class="cls-4" d="M661.53,1012.44l2.63-1-.88-3.63-3.36,1.24Z"/><path class="cls-4" d="M654,1013.27h2.79l.42-3.7-3.58,0Z"/><path class="cls-4" d="M646.6,1011.47l2.62,1,1.66-3.35-3.37-1.2Z"/><path class="cls-4" d="M640.28,1007.25l2.14,1.8,2.7-2.58-2.75-2.28Z"/><path class="cls-4" d="M635.78,1001.13l1.4,2.42,3.42-1.5L638.79,999Z"/><path class="cls-4" d="M633.65,993.84l.49,2.75,3.72-.24-.64-3.52Z"/><path class="cls-4" d="M634.15,986.26l-.49,2.74,3.58,1.06.6-3.53Z"/><path class="cls-4" d="M637.2,979.3l-1.39,2.42,3,2.21,1.77-3.11Z"/><path class="cls-4" d="M642.45,973.81l-2.14,1.79,2.07,3.11,2.72-2.32Z"/><path class="cls-4" d="M649.26,970.44l-2.62,1,.88,3.62,3.35-1.24Z"/><path class="cls-4" d="M656.82,969.61H654l-.42,3.71,3.58,0Z"/><circle class="cls-4" cx="655.4" cy="991.36" r="6.2"/><rect class="cls-4" x="654.01" y="978.81" width="2.77" height="6.54"/><rect class="cls-4" x="660.95" y="987.1" width="6.54" height="2.77" transform="translate(-272.95 253.64) rotate(-18)"/><rect class="cls-4" x="659.47" y="995.59" width="2.77" height="6.54" transform="translate(-460.91 579.21) rotate(-36)"/><rect class="cls-4" x="646.67" y="997.48" width="6.54" height="2.77" transform="translate(-540.18 937.56) rotate(-54)"/><rect class="cls-4" x="645.19" y="985.22" width="2.77" height="6.54" transform="translate(-493.34 1297.96) rotate(-72)"/><rect class="cls-4" x="654.01" y="978.81" width="2.77" height="6.54"/></g><g id="Layer_16" data-name="Layer 16"><circle class="cls-41" cx="665.31" cy="906.41" r="16.11"/><path class="cls-4" d="M666.65,885.79H664l-.39,3.51,3.39,0Z"/><path class="cls-4" d="M673.64,887.5l-2.48-.91-1.57,3.17,3.19,1.14Z"/><path class="cls-4" d="M679.63,891.49l-2-1.7-2.56,2.44,2.61,2.16Z"/><path class="cls-4" d="M683.89,897.3l-1.32-2.3-3.24,1.42,1.71,2.93Z"/><path class="cls-4" d="M685.91,904.21l-.46-2.61-3.53.22.61,3.34Z"/><path class="cls-4" d="M685.45,911.39l.46-2.6-3.4-1-.57,3.34Z"/><path class="cls-4" d="M682.55,918l1.32-2.29-2.84-2.1-1.68,2.95Z"/><path class="cls-4" d="M677.57,923.19l2-1.7-2-3-2.58,2.2Z"/><path class="cls-4" d="M671.12,926.37l2.49-.9-.84-3.44-3.18,1.18Z"/><path class="cls-4" d="M664,927.16h2.65l.39-3.51-3.39,0Z"/><path class="cls-4" d="M657,925.46l2.49.9,1.57-3.17-3.2-1.14Z"/><path class="cls-4" d="M651,921.46l2,1.7,2.56-2.44L653,918.56Z"/><path class="cls-4" d="M646.72,915.66,648,918l3.24-1.42-1.71-2.93Z"/><path class="cls-4" d="M644.7,908.74l.46,2.61,3.53-.22-.61-3.34Z"/><path class="cls-4" d="M645.17,901.56l-.46,2.61,3.39,1,.57-3.34Z"/><path class="cls-4" d="M648.06,895l-1.32,2.29,2.85,2.1,1.67-3Z"/><path class="cls-4" d="M653,889.77l-2,1.7,2,2.94,2.58-2.19Z"/><path class="cls-4" d="M659.49,886.58l-2.48.9.83,3.44,3.18-1.18Z"/><path class="cls-4" d="M666.65,885.79H664l-.39,3.51,3.39,0Z"/><circle class="cls-4" cx="665.31" cy="906.41" r="3.85"/></g><g id="Layer_17" data-name="Layer 17"><circle class="cls-27" cx="830.44" cy="759.69" r="9.06"/><path class="cls-4" d="M831.27,747h-1.63l-.24,2.16h2.09Z"/><path class="cls-4" d="M835.57,748.06l-1.53-.55-1,2,2,.7Z"/><path class="cls-4" d="M839.25,750.52l-1.24-1-1.58,1.5,1.61,1.33Z"/><path class="cls-4" d="M841.87,754.09l-.81-1.41-2,.87,1,1.8Z"/><path class="cls-4" d="M843.12,758.34l-.29-1.6-2.17.14.38,2Z"/><path class="cls-4" d="M842.83,762.76l.28-1.6-2.08-.62-.35,2.06Z"/><path class="cls-4" d="M841.05,766.81l.81-1.41-1.75-1.29-1,1.82Z"/><path class="cls-4" d="M838,770l1.24-1-1.2-1.81-1.59,1.35Z"/><path class="cls-4" d="M834,772l1.53-.55L835,769.3l-1.95.73Z"/><path class="cls-4" d="M829.62,772.46h1.62l.25-2.16H829.4Z"/><path class="cls-4" d="M825.32,771.41l1.52.55,1-1.94-2-.7Z"/><path class="cls-4" d="M821.63,769l1.25,1,1.57-1.5-1.6-1.33Z"/><path class="cls-4" d="M819,765.38l.82,1.41,2-.87-1.06-1.8Z"/><path class="cls-4" d="M817.77,761.13l.28,1.6,2.17-.13-.37-2.05Z"/><path class="cls-4" d="M818.06,756.71l-.28,1.61,2.08.61.35-2.06Z"/><path class="cls-4" d="M819.84,752.66l-.81,1.41,1.75,1.29,1-1.81Z"/><path class="cls-4" d="M822.9,749.46l-1.25,1,1.21,1.81,1.58-1.35Z"/><path class="cls-4" d="M826.87,747.5l-1.53.56.51,2.11,2-.73Z"/><path class="cls-4" d="M831.27,747h-1.63l-.24,2.16h2.09Z"/><circle class="cls-4" cx="830.44" cy="759.69" r="3.61"/><rect class="cls-4" x="829.64" y="752.37" width="1.62" height="3.81"/><rect class="cls-4" x="833.68" y="757.21" width="3.81" height="1.62" transform="matrix(0.95, -0.31, 0.31, 0.95, -193.34, 295.31)"/><rect class="cls-4" x="832.81" y="762.16" width="1.62" height="3.81" transform="translate(-289.9 635.91) rotate(-36)"/><rect class="cls-4" x="825.36" y="763.25" width="3.81" height="1.62" transform="translate(-277.13 984.23) rotate(-54)"/><rect class="cls-4" x="824.49" y="756.11" width="1.62" height="3.81" transform="translate(-150.65 1308.68) rotate(-72)"/><rect class="cls-4" x="829.64" y="752.37" width="1.62" height="3.81"/></g><g id="Layer_18" data-name="Layer 18"><circle class="cls-31" cx="659.68" cy="765.43" r="13.73"/><path class="cls-4" d="M660.83,747.86h-2.26l-.33,3,2.89,0Z"/><path class="cls-4" d="M666.79,749.31l-2.12-.77-1.34,2.7,2.72,1Z"/><path class="cls-4" d="M671.9,752.72l-1.73-1.45L668,753.35l2.22,1.84Z"/><path class="cls-4" d="M675.53,757.67l-1.13-2-2.76,1.21,1.46,2.5Z"/><path class="cls-4" d="M677.25,763.56l-.39-2.22-3,.19.52,2.84Z"/><path class="cls-4" d="M676.85,769.68l.39-2.22-2.89-.85-.48,2.85Z"/><path class="cls-4" d="M674.38,775.3l1.13-1.95-2.43-1.79-1.43,2.51Z"/><path class="cls-4" d="M670.14,779.74l1.73-1.45-1.67-2.51-2.2,1.87Z"/><path class="cls-4" d="M664.64,782.46l2.12-.77-.71-2.93-2.71,1Z"/><path class="cls-4" d="M658.54,783.13h2.25l.34-3-2.89,0Z"/><path class="cls-4" d="M652.57,781.67l2.12.78,1.34-2.71-2.72-1Z"/><path class="cls-4" d="M647.47,778.27l1.73,1.45,2.18-2.08-2.23-1.85Z"/><path class="cls-4" d="M643.84,773.32l1.12,1.95,2.77-1.21-1.46-2.49Z"/><path class="cls-4" d="M642.12,767.43l.39,2.22,3-.19-.52-2.85Z"/><path class="cls-4" d="M642.51,761.3l-.39,2.22,2.89.85.49-2.85Z"/><path class="cls-4" d="M645,755.68l-1.13,2,2.43,1.78,1.43-2.51Z"/><path class="cls-4" d="M649.22,751.25l-1.72,1.45,1.67,2.51,2.2-1.88Z"/><path class="cls-4" d="M654.73,748.53l-2.12.77.71,2.93,2.71-1Z"/><path class="cls-4" d="M660.83,747.86h-2.26l-.33,3,2.89,0Z"/><circle class="cls-4" cx="659.68" cy="765.43" r="3.28"/></g><g id="Layer_19" data-name="Layer 19"><circle class="cls-15" cx="818.45" cy="467.67" r="15.93"/><path class="cls-4" d="M819.78,447.29h-2.62l-.39,3.47,3.35,0Z"/><path class="cls-4" d="M826.69,449l-2.46-.9-1.55,3.13,3.16,1.13Z"/><path class="cls-4" d="M832.61,452.93l-2-1.68-2.53,2.41,2.58,2.14Z"/><path class="cls-4" d="M836.83,458.67l-1.31-2.27-3.21,1.4,1.7,2.89Z"/><path class="cls-4" d="M838.82,465.5l-.45-2.58-3.49.22.6,3.3Z"/><path class="cls-4" d="M838.36,472.6l.46-2.57-3.36-1-.56,3.3Z"/><path class="cls-4" d="M835.5,479.12l1.31-2.27L834,474.78l-1.66,2.91Z"/><path class="cls-4" d="M830.58,484.27l2-1.69-1.93-2.91-2.56,2.17Z"/><path class="cls-4" d="M824.2,487.42l2.45-.9-.82-3.4-3.14,1.17Z"/><path class="cls-4" d="M817.12,488.2h2.62l.38-3.48-3.35,0Z"/><path class="cls-4" d="M810.2,486.51l2.46.89,1.56-3.13-3.16-1.13Z"/><path class="cls-4" d="M804.28,482.56l2,1.68,2.53-2.41-2.58-2.14Z"/><path class="cls-4" d="M800.07,476.82l1.31,2.26,3.2-1.4-1.69-2.89Z"/><path class="cls-4" d="M798.07,470l.46,2.57,3.49-.22-.6-3.3Z"/><path class="cls-4" d="M798.54,462.88l-.46,2.58,3.36,1,.56-3.3Z"/><path class="cls-4" d="M801.4,456.36l-1.31,2.27,2.82,2.07,1.65-2.91Z"/><path class="cls-4" d="M806.32,451.22l-2,1.68,1.94,2.91,2.56-2.17Z"/><path class="cls-4" d="M812.7,448.07l-2.46.89.83,3.4,3.14-1.17Z"/><path class="cls-4" d="M819.78,447.29h-2.62l-.39,3.47,3.35,0Z"/><circle class="cls-4" cx="818.45" cy="467.67" r="3.81"/></g><g id="Layer_20" data-name="Layer 20"><circle class="cls-33" cx="828.66" cy="515.2" r="15.55"/><path class="cls-4" d="M830.07,493.46h-2.79l-.41,3.7,3.57,0Z"/><path class="cls-4" d="M837.45,495.26l-2.62-1-1.66,3.34,3.37,1.21Z"/><path class="cls-4" d="M843.77,499.47l-2.13-1.79-2.7,2.57,2.75,2.29Z"/><path class="cls-4" d="M848.27,505.6l-1.4-2.42-3.41,1.5,1.8,3.08Z"/><path class="cls-4" d="M850.4,512.89l-.48-2.75-3.73.24.65,3.52Z"/><path class="cls-4" d="M849.91,520.47l.48-2.75-3.58-1.05-.6,3.53Z"/><path class="cls-4" d="M846.85,527.43l1.4-2.42-3-2.21-1.76,3.11Z"/><path class="cls-4" d="M841.6,532.92l2.14-1.79L841.67,528,839,530.34Z"/><path class="cls-4" d="M834.79,536.28l2.62-.95-.88-3.62L833.18,533Z"/><path class="cls-4" d="M827.24,537.12H830l.41-3.71-3.57,0Z"/><path class="cls-4" d="M819.86,535.32l2.62.95,1.66-3.34-3.37-1.2Z"/><path class="cls-4" d="M813.54,531.1l2.14,1.79,2.7-2.57L815.62,528Z"/><path class="cls-4" d="M809,525l1.4,2.42,3.41-1.49-1.8-3.09Z"/><path class="cls-4" d="M806.91,517.68l.49,2.75,3.72-.24-.64-3.51Z"/><path class="cls-4" d="M807.4,510.1l-.48,2.75,3.58,1,.6-3.53Z"/><path class="cls-4" d="M810.46,503.14l-1.4,2.42,3,2.21,1.77-3.1Z"/><path class="cls-4" d="M815.71,497.65l-2.14,1.8,2.07,3.1,2.72-2.31Z"/><path class="cls-4" d="M822.52,494.29l-2.62.95.88,3.63,3.35-1.25Z"/><path class="cls-4" d="M830.07,493.46h-2.79l-.41,3.7,3.57,0Z"/><circle class="cls-4" cx="828.66" cy="515.2" r="6.2"/><rect class="cls-4" x="827.27" y="502.65" width="2.77" height="6.54"/><rect class="cls-4" x="834.21" y="510.95" width="6.54" height="2.77" transform="translate(-117.33 283.87) rotate(-18)"/><rect class="cls-4" x="832.72" y="519.44" width="2.77" height="6.54" transform="translate(-147.94 590.11) rotate(-36)"/><rect class="cls-4" x="819.93" y="521.32" width="6.54" height="2.77" transform="matrix(0.59, -0.81, 0.81, 0.59, -83.54, 881.45)"/><rect class="cls-4" x="818.45" y="509.06" width="2.77" height="6.54" transform="translate(79.23 1133.72) rotate(-72)"/><rect class="cls-4" x="827.27" y="502.65" width="2.77" height="6.54"/></g><g id="Layer_21" data-name="Layer 21"><circle class="cls-18" cx="577.97" cy="1228.97" r="31.97"/><path class="cls-4" d="M580.64,1188h-5.25l-.78,7,6.73,0C581.11,1192.66,580.87,1190.35,580.64,1188Z"/><path class="cls-4" d="M594.52,1191.43l-4.93-1.8-3.12,6.29,6.34,2.26Z"/><path class="cls-4" d="M606.41,1199.36l-4-3.37-5.08,4.84,5.18,4.29Z"/><path class="cls-4" d="M614.87,1210.88l-2.63-4.55-6.43,2.82,3.4,5.8Z"/><path class="cls-4" d="M618.88,1224.6l-.92-5.17-7,.44,1.21,6.62Z"/><path class="cls-4" d="M618,1238.86l.91-5.17-6.73-2-1.13,6.63Z"/><path class="cls-4" d="M612.2,1252l2.63-4.55-5.65-4.17-3.33,5.85Z"/><path class="cls-4" d="M602.32,1262.27l4-3.37-3.89-5.85-5.13,4.36Z"/><path class="cls-4" d="M589.51,1268.6l4.94-1.79-1.66-6.83-6.31,2.34Z"/><path class="cls-4" d="M575.31,1270.17h5.25l.78-7-6.73,0C574.84,1265.54,575.07,1267.86,575.31,1270.17Z"/><path class="cls-4" d="M561.42,1266.78l4.94,1.79,3.12-6.28-6.34-2.27Z"/><path class="cls-4" d="M549.53,1258.85l4,3.37,5.08-4.84-5.18-4.3Z"/><path class="cls-4" d="M541.08,1247.33l2.62,4.54,6.44-2.81-3.41-5.81Z"/><path class="cls-4" d="M537.07,1233.61l.91,5.17,7-.44-1.21-6.62Z"/><path class="cls-4" d="M538,1219.35l-.92,5.17,6.74,2,1.13-6.64Z"/><path class="cls-4" d="M543.74,1206.26l-2.62,4.55,5.65,4.16,3.33-5.84Z"/><path class="cls-4" d="M553.62,1195.93l-4,3.38,3.88,5.84,5.13-4.35Z"/><path class="cls-4" d="M566.43,1189.6l-4.93,1.8,1.65,6.82,6.31-2.34Z"/><path class="cls-4" d="M580.64,1188h-5.25l-.78,7,6.73,0C581.11,1192.66,580.87,1190.35,580.64,1188Z"/><circle class="cls-4" cx="577.97" cy="1228.97" r="7.65"/></g><g id="Layer_22" data-name="Layer 22"><circle class="cls-26" cx="508.52" cy="1154.38" r="41.78"/><path class="cls-4" d="M512.33,1095.94h-7.5l-1.11,10,9.61-.06Q512.82,1100.89,512.33,1095.94Z"/><path class="cls-4" d="M532.16,1100.78l-7-2.56-4.46,9,9.05,3.23Q530.94,1105.6,532.16,1100.78Z"/><path class="cls-4" d="M549.15,1112.12l-5.75-4.83-7.25,6.92,7.39,6.13Z"/><path class="cls-4" d="M561.23,1128.57l-3.75-6.49-9.18,4,4.85,8.3Z"/><path class="cls-4" d="M567,1148.17l-1.3-7.39-10,.64,1.72,9.45Z"/><path class="cls-4" d="M565.63,1168.54l1.3-7.38-9.61-2.83-1.61,9.47Z"/><path class="cls-4" d="M557.42,1187.23l3.75-6.49-8.07-6-4.75,8.35Z"/><path class="cls-4" d="M543.31,1202l5.75-4.82-5.55-8.35-7.33,6.22Z"/><path class="cls-4" d="M525,1211l7-2.57-2.36-9.74-9,3.35Q522.86,1206.54,525,1211Z"/><path class="cls-4" d="M504.71,1213.26h7.5l1.12-10-9.61.06Z"/><path class="cls-4" d="M484.88,1208.42l7.05,2.57,4.45-9-9.05-3.23Q486.1,1203.6,484.88,1208.42Z"/><path class="cls-4" d="M467.9,1197.09l5.74,4.82,7.26-6.91-7.4-6.13Z"/><path class="cls-4" d="M455.82,1180.64l3.75,6.49,9.18-4-4.86-8.29Z"/><path class="cls-4" d="M450.09,1161l1.3,7.39,10-.64-1.73-9.45Z"/><path class="cls-4" d="M451.41,1140.67l-1.3,7.38,9.62,2.83,1.61-9.47Z"/><path class="cls-4" d="M459.62,1122l-3.74,6.49,8.06,5.94,4.76-8.35Z"/><path class="cls-4" d="M473.73,1107.22,468,1112l5.55,8.35,7.32-6.23Z"/><path class="cls-4" d="M492,1098.18l-7.05,2.56,2.36,9.74,9-3.34Z"/><path class="cls-4" d="M512.33,1095.94h-7.5l-1.11,10,9.61-.06Q512.82,1100.89,512.33,1095.94Z"/><circle class="cls-4" cx="508.52" cy="1154.38" r="16.66"/><rect class="cls-4" x="504.8" y="1120.66" width="7.45" height="17.58"/><rect class="cls-4" x="523.45" y="1142.95" width="17.58" height="7.45" transform="translate(-328.29 220.59) rotate(-18)"/><rect class="cls-4" x="519.45" y="1165.76" width="7.45" height="17.58" transform="translate(-590.46 531.83) rotate(-36)"/><rect class="cls-4" x="485.08" y="1170.82" width="17.58" height="7.45" transform="translate(-746.65 883.71) rotate(-54)"/><rect class="cls-4" x="481.09" y="1137.88" width="7.45" height="17.58" transform="translate(-755.55 1253.41) rotate(-72)"/><rect class="cls-4" x="504.8" y="1120.66" width="7.45" height="17.58"/></g></svg>